<svg xmlns="http://www.w3.org/2000/svg" width="18" height="18" viewBox="0 0 18 18" fill="none">
  <g clip-path="url(#clip0_363_18792)">
    <path d="M1.5 8.997C1.5 5.4615 1.5 3.69375 2.598 2.595C3.52875 1.665 4.94025 1.5225 7.5 1.5M16.5 8.997C16.5 5.4615 16.5 3.69375 15.4012 2.595C14.4712 1.665 13.0598 1.5225 10.5 1.5" stroke="black" stroke-width="1.125" stroke-linecap="round"/>
    <path d="M7.5 16.4961C5.4 16.4961 4.35 16.4961 3.5475 16.0873C2.84192 15.7278 2.26827 15.1542 1.90875 14.4486C1.5 13.6461 1.5 12.5961 1.5 10.4961C1.5 8.39609 1.5 7.34609 1.90875 6.54359C2.26827 5.83802 2.84192 5.26436 3.5475 4.90484C4.35 4.49609 5.4 4.49609 7.5 4.49609H10.5C12.6 4.49609 13.65 4.49609 14.4525 4.90484C15.1581 5.26436 15.7317 5.83802 16.0912 6.54359C16.5 7.34609 16.5 8.39609 16.5 10.4961C16.5 12.5961 16.5 13.6461 16.0912 14.4486C15.7317 15.1542 15.1581 15.7278 14.4525 16.0873C13.65 16.4961 12.6 16.4961 10.5 16.4961" stroke="black" stroke-width="1.125" stroke-linecap="round"/>
    <path d="M9 12.7461V8.24609M9 8.24609L10.875 10.1211M9 8.24609L7.125 10.1211" stroke="black" stroke-width="1.125" stroke-linecap="round" stroke-linejoin="round"/>
  </g>
  <defs>
    <clipPath id="clip0_363_18792">
      <rect width="18" height="18" fill="white"/>
    </clipPath>
  </defs>
</svg>