<svg width="49" height="49" viewBox="0 0 49 49" fill="none" xmlns="http://www.w3.org/2000/svg">
<g clip-path="url(#clip0_933_14484)">
<path d="M38.8672 18.5855L37.1776 14.3614L38.8672 10.1372C39.9875 10.1372 41.062 10.5823 41.8541 11.3745C42.6463 12.1666 43.0914 13.2411 43.0914 14.3614C43.0914 15.4817 42.6463 16.5561 41.8541 17.3483C41.062 18.1405 39.9875 18.5855 38.8672 18.5855ZM10.1431 18.5855L11.8327 14.3614L10.1431 10.1372C9.02277 10.1372 7.94835 10.5823 7.15617 11.3745C6.36399 12.1666 5.91895 13.2411 5.91895 14.3614C5.91895 15.4817 6.36399 16.5561 7.15617 17.3483C7.94835 18.1405 9.02277 18.5855 10.1431 18.5855Z" fill="#FACD89"/>
<path d="M29.084 43.0099L28.5433 45.688C28.3571 46.622 27.853 47.4626 27.1166 48.0667C26.3803 48.6708 25.4574 49.0009 24.505 49.0009C23.5526 49.0009 22.6297 48.6708 21.8933 48.0667C21.157 47.4626 20.6529 46.622 20.4667 45.688L19.926 43.0099H29.084Z" fill="#EBA63E"/>
<path d="M10.1403 33.6336V42.2416C9.66772 41.8425 9.06916 41.6236 8.45064 41.6236C7.83212 41.6236 7.23356 41.8425 6.76099 42.2416V32.7542C6.95855 33.0182 7.21302 33.2343 7.50552 33.3866C7.79802 33.5388 8.12105 33.6233 8.45064 33.6336H10.1403ZM42.2437 32.7542V42.2416C41.7712 41.8425 41.1726 41.6236 40.5541 41.6236C39.9356 41.6236 39.337 41.8425 38.8644 42.2416V33.6336H40.5541C40.8837 33.6233 41.2067 33.5388 41.4992 33.3866C41.7917 33.2343 42.0462 33.0182 42.2437 32.7542Z" fill="#EBA63E"/>
<path d="M20.2786 0H28.7268C34.3255 0 38.8648 4.53926 38.8648 10.1379V20.2759C38.8648 21.6202 38.3307 22.9095 37.3801 23.8602C36.4295 24.8108 35.1402 25.3448 33.7958 25.3448H15.2096C13.8652 25.3448 12.5759 24.8108 11.6253 23.8602C10.6747 22.9095 10.1406 21.6202 10.1406 20.2759V10.1379C10.1406 4.53926 14.6799 0 20.2786 0Z" fill="#EBA63E"/>
<path d="M29.5722 7.60339H19.4343C16.1682 7.60339 13.5205 10.2511 13.5205 13.5172V15.2068C13.5205 18.4729 16.1682 21.1206 19.4343 21.1206H29.5722C32.8383 21.1206 35.486 18.4729 35.486 15.2068V13.5172C35.486 10.2511 32.8383 7.60339 29.5722 7.60339Z" fill="#2E3790"/>
<path d="M21.968 16.0512C21.7439 16.0512 21.529 15.9622 21.3706 15.8038C21.2122 15.6453 21.1232 15.4305 21.1232 15.2064C21.1232 14.7583 20.9451 14.3285 20.6283 14.0116C20.3114 13.6948 19.8816 13.5167 19.4335 13.5167C18.9854 13.5167 18.5556 13.6948 18.2387 14.0116C17.9219 14.3285 17.7439 14.7583 17.7439 15.2064C17.7439 15.4305 17.6548 15.6453 17.4964 15.8038C17.338 15.9622 17.1231 16.0512 16.899 16.0512C16.675 16.0512 16.4601 15.9622 16.3016 15.8038C16.1432 15.6453 16.0542 15.4305 16.0542 15.2064C16.0542 14.3101 16.4102 13.4506 17.044 12.8169C17.6777 12.1831 18.5373 11.8271 19.4335 11.8271C20.3298 11.8271 21.1893 12.1831 21.823 12.8169C22.4568 13.4506 22.8128 14.3101 22.8128 15.2064C22.8128 15.4305 22.7238 15.6453 22.5654 15.8038C22.4069 15.9622 22.1921 16.0512 21.968 16.0512ZM32.1059 16.0512C31.8819 16.0512 31.667 15.9622 31.5085 15.8038C31.3501 15.6453 31.2611 15.4305 31.2611 15.2064C31.2611 14.7583 31.0831 14.3285 30.7662 14.0116C30.4493 13.6948 30.0196 13.5167 29.5714 13.5167C29.1233 13.5167 28.6935 13.6948 28.3767 14.0116C28.0598 14.3285 27.8818 14.7583 27.8818 15.2064C27.8818 15.4305 27.7928 15.6453 27.6343 15.8038C27.4759 15.9622 27.261 16.0512 27.037 16.0512C26.8129 16.0512 26.598 15.9622 26.4396 15.8038C26.2811 15.6453 26.1921 15.4305 26.1921 15.2064C26.1921 14.3101 26.5482 13.4506 27.1819 12.8169C27.8157 12.1831 28.6752 11.8271 29.5714 11.8271C30.4677 11.8271 31.3272 12.1831 31.961 12.8169C32.5947 13.4506 32.9508 14.3101 32.9508 15.2064C32.9508 15.4305 32.8617 15.6453 32.7033 15.8038C32.5449 15.9622 32.33 16.0512 32.1059 16.0512Z" fill="white"/>
<path d="M15.9103 40.2214C14.432 38.6646 13.4068 36.7337 12.945 34.6371C12.7647 33.8043 12.6741 32.9547 12.6746 32.1026V30.413C12.6704 29.5219 12.9068 28.6463 13.3589 27.8785C13.8024 27.1078 14.4413 26.4677 15.2111 26.0227C15.9809 25.5777 16.8544 25.3436 17.7436 25.344H31.2608C32.15 25.3436 33.0235 25.5777 33.7933 26.0227C34.5632 26.4677 35.202 27.1078 35.6455 27.8785C36.0975 28.6464 36.334 29.5217 36.3298 30.413V32.1026C36.3303 32.9547 36.2397 33.8043 36.0594 34.6371C35.5977 36.7337 34.5724 38.6646 33.0941 40.2214" fill="#FACD89"/>
<path d="M33.0959 40.2228C31.9928 41.395 30.6615 42.3291 29.1839 42.9676C27.7063 43.6061 26.1137 43.9355 24.504 43.9355C22.8944 43.9355 21.3017 43.6061 19.8241 42.9676C18.3465 42.3291 17.0152 41.395 15.9121 40.2228C18.6725 39.2625 21.582 38.8019 24.504 38.8626C27.426 38.8019 30.3355 39.2625 33.0959 40.2228Z" fill="white"/>
<path d="M23.3189 34.1012L21.4916 32.0195C21.3044 31.8059 21.1828 31.5428 21.1413 31.2618C21.0998 30.9808 21.1403 30.6939 21.2578 30.4353C21.3753 30.1767 21.5649 29.9575 21.8039 29.8039C22.0428 29.6504 22.321 29.569 22.605 29.5695H26.3983C26.6824 29.569 26.9605 29.6504 27.1995 29.8039C27.4384 29.9575 27.628 30.1767 27.7456 30.4353C27.8631 30.6939 27.9035 30.9808 27.8621 31.2618C27.8206 31.5428 27.699 31.8059 27.5118 32.0195L25.6844 34.1012C25.5366 34.2692 25.3546 34.4038 25.1507 34.496C24.9467 34.5882 24.7255 34.6358 24.5017 34.6358C24.2779 34.6358 24.0566 34.5882 23.8527 34.496C23.6488 34.4038 23.4668 34.2692 23.3189 34.1012Z" fill="#2E3790"/>
<path d="M12.6777 32.101C12.6777 32.9534 12.7681 33.8024 12.9481 34.6354H8.45359C7.78216 34.633 7.13892 34.3652 6.66415 33.8904C6.18937 33.4156 5.92156 32.7724 5.91911 32.101V31.2561C5.91911 30.3599 6.27514 29.5003 6.90888 28.8666C7.54263 28.2329 8.40217 27.8768 9.29842 27.8768H13.362C12.9099 28.6446 12.6735 29.5203 12.6777 30.4113V32.101ZM11.8329 43.9285C11.8351 44.827 11.4804 45.6896 10.8466 46.3265C10.2129 46.9634 9.35208 47.3225 8.45359 47.3248C7.5551 47.327 6.69252 46.9722 6.05561 46.3385C5.4187 45.7047 5.05962 44.8439 5.05738 43.9454C5.05627 43.5006 5.1428 43.0598 5.31203 42.6484C5.48125 42.2369 5.72986 41.8628 6.04366 41.5475C6.35746 41.2321 6.7303 40.9816 7.1409 40.8103C7.5515 40.6391 7.99181 40.5503 8.43669 40.5492C9.33518 40.547 10.1978 40.9018 10.8347 41.5355C11.4716 42.1693 11.8307 43.0301 11.8329 43.9285ZM43.0915 31.2561V32.101C43.0891 32.7724 42.8213 33.4156 42.3465 33.8904C41.8717 34.3652 41.2285 34.633 40.557 34.6354H36.0626C36.2425 33.8024 36.3329 32.9534 36.3329 32.101V30.4113C36.3372 29.5203 36.1007 28.6446 35.6486 27.8768H39.7122C40.6085 27.8768 41.468 28.2329 42.1017 28.8666C42.7355 29.5003 43.0915 30.3599 43.0915 31.2561ZM43.9363 43.9285C43.9375 44.3734 43.8509 44.8142 43.6817 45.2256C43.5125 45.6371 43.2639 46.0112 42.9501 46.3265C42.6363 46.6419 42.2634 46.8924 41.8528 47.0636C41.4422 47.2349 41.0019 47.3236 40.557 47.3248C40.1122 47.3259 39.6714 47.2393 39.26 47.0701C38.8485 46.9009 38.4744 46.6523 38.1591 46.3385C37.8437 46.0247 37.5932 45.6518 37.4219 45.2412C37.2507 44.8306 37.1619 44.3903 37.1608 43.9454C37.1586 43.047 37.5134 42.1844 38.1471 41.5475C38.7809 40.9105 39.6417 40.5515 40.5401 40.5492C41.4386 40.547 42.3012 40.9018 42.9381 41.5355C43.575 42.1693 43.9341 43.0301 43.9363 43.9285Z" fill="white"/>
<path d="M29.5711 21.9663H19.4332C17.6413 21.9643 15.9234 21.2515 14.6563 19.9845C13.3893 18.7174 12.6766 16.9995 12.6746 15.2077V13.518C12.6766 11.7261 13.3893 10.0082 14.6563 8.74115C15.9234 7.4741 17.6413 6.76139 19.4332 6.75938H29.5711C31.363 6.76139 33.0809 7.4741 34.348 8.74115C35.615 10.0082 36.3277 11.7261 36.3297 13.518V15.2077C36.3277 16.9995 35.615 18.7174 34.348 19.9845C33.0809 21.2515 31.363 21.9643 29.5711 21.9663ZM19.4332 8.44903C18.0892 8.45037 16.8007 8.98485 15.8504 9.93518C14.9 10.8855 14.3656 12.174 14.3642 13.518V15.2077C14.3656 16.5516 14.9 17.8401 15.8504 18.7905C16.8007 19.7408 18.0892 20.2753 19.4332 20.2766H29.5711C30.9151 20.2753 32.2036 19.7408 33.1539 18.7905C34.1043 17.8401 34.6387 16.5516 34.6401 15.2077V13.518C34.6387 12.174 34.1043 10.8855 33.1539 9.93518C32.2036 8.98485 30.9151 8.45037 29.5711 8.44903H19.4332Z" fill="#EBEFF0"/>
</g>
<defs>
<clipPath id="clip0_933_14484">
<rect width="49" height="49" fill="white"/>
</clipPath>
</defs>
</svg>
