<svg width="20" height="20" viewBox="0 0 20 20" fill="none" xmlns="http://www.w3.org/2000/svg">
<g clip-path="url(#clip0_933_14294)">
<path d="M3.21429 13.9284H4.69606C4.66239 13.6917 4.64462 13.4531 4.64286 13.2141V12.4998C4.64301 12.2579 4.6785 12.0172 4.74821 11.7855H3.57143C2.97972 11.7855 2.5 12.2652 2.5 12.857V13.2141C2.50004 13.6086 2.8198 13.9284 3.21429 13.9284ZM8.53566 18.363L8.64281 18.8861C8.77159 19.5333 9.33936 19.9996 9.99919 20C10.6591 20.0004 11.2274 19.5349 11.3571 18.8879L11.4642 18.363C10.5087 18.6406 9.49401 18.6406 8.53855 18.363H8.53566ZM9.99994 16.4283C9.00543 16.4162 8.01398 16.5411 7.05353 16.7994C8.7648 18.2093 11.2351 18.2093 12.9463 16.7994C11.9859 16.5411 10.9944 16.4162 9.99994 16.4283ZM2.85718 14.5919V16.4641C3.09285 16.416 3.3358 16.416 3.57147 16.4641V14.6427H3.21433C3.0936 14.6412 2.97356 14.6241 2.85718 14.5919Z" fill="white"/>
<path d="M3.21427 19.2855C3.80601 19.2855 4.28571 18.8058 4.28571 18.2141C4.28571 17.6223 3.80601 17.1426 3.21427 17.1426C2.62252 17.1426 2.14282 17.6223 2.14282 18.2141C2.14282 18.8058 2.62252 19.2855 3.21427 19.2855Z" fill="white"/>
<path d="M3.57137 7.09775V4.33064C2.93994 4.49299 2.49854 5.06224 2.49854 5.71418C2.49854 6.36612 2.93997 6.93541 3.57137 7.09775ZM15.357 12.4998V13.2141C15.3552 13.4531 15.3374 13.6918 15.3038 13.9284H16.7855C17.18 13.9284 17.4998 13.6086 17.4998 13.2141V12.857C17.4998 12.2653 17.0201 11.7855 16.4284 11.7855H15.2498C15.3201 12.0172 15.3562 12.2578 15.357 12.4998ZM10.8016 12.4998H9.19809C9.14668 12.4996 9.09628 12.5142 9.05296 12.5418C9.00963 12.5695 8.97521 12.6091 8.95383 12.6559C8.93245 12.7026 8.92501 12.7545 8.93242 12.8054C8.93983 12.8563 8.96177 12.904 8.9956 12.9427L9.76738 13.823C9.79695 13.8551 9.83284 13.8807 9.8728 13.8982C9.91275 13.9157 9.9559 13.9247 9.99953 13.9247C10.0431 13.9247 10.0863 13.9157 10.1263 13.8982C10.1662 13.8807 10.2021 13.8551 10.2317 13.823L11.0035 12.9427C11.0372 12.904 11.0591 12.8564 11.0665 12.8056C11.0739 12.7548 11.0666 12.7029 11.0453 12.6562C11.024 12.6095 10.9897 12.5699 10.9465 12.5422C10.9033 12.5144 10.853 12.4997 10.8016 12.4998ZM6.07134 9.99986H13.9284C14.9141 9.99869 15.7129 9.19991 15.7141 8.21418V3.9285C15.7115 1.75994 13.9542 0.00253903 11.7856 0H8.21416C6.04556 0.00253903 4.2882 1.75994 4.28566 3.9285V8.21415C4.28683 9.19991 5.08561 9.99869 6.07134 9.99986ZM4.99995 5.35708C5.0017 3.77987 6.27985 2.50172 7.85706 2.49997H12.1427C13.7199 2.50172 14.9981 3.77987 14.9998 5.35708V6.07136C14.9981 7.64857 13.7199 8.92671 12.1427 8.92847H7.85706C6.27985 8.92671 5.0017 7.64857 4.99995 6.07136V5.35708Z" fill="white"/>
<path d="M7.85714 8.21418H12.1428C13.3257 8.21301 14.2844 7.25431 14.2856 6.07136V5.35707C14.2844 4.17412 13.3257 3.21542 12.1428 3.21425H7.85714C6.67419 3.21542 5.71549 4.17412 5.71432 5.35707V6.07136C5.71549 7.25431 6.67415 8.21297 7.85714 8.21418ZM12.1428 4.64279C12.9318 4.64279 13.5713 5.28239 13.5713 6.07132C13.5713 6.16604 13.5337 6.25688 13.4667 6.32386C13.3997 6.39084 13.3089 6.42847 13.2142 6.42847C13.1195 6.42847 13.0286 6.39084 12.9616 6.32386C12.8947 6.25688 12.857 6.16604 12.857 6.07132C12.857 5.67684 12.5372 5.35704 12.1427 5.35704C11.7483 5.35704 11.4285 5.67684 11.4285 6.07132C11.4285 6.16604 11.3908 6.25688 11.3239 6.32386C11.2569 6.39084 11.166 6.42847 11.0713 6.42847C10.9766 6.42847 10.8858 6.39084 10.8188 6.32386C10.7518 6.25688 10.7142 6.16604 10.7142 6.07132C10.7142 5.28239 11.3538 4.64279 12.1428 4.64279ZM7.85714 4.64279C8.64612 4.64279 9.28568 5.28239 9.28568 6.07132C9.28568 6.16604 9.24805 6.25688 9.18107 6.32386C9.1141 6.39084 9.02326 6.42847 8.92853 6.42847C8.83381 6.42847 8.74297 6.39084 8.676 6.32386C8.60902 6.25688 8.57139 6.16604 8.57139 6.07132C8.57139 5.67684 8.25159 5.35704 7.8571 5.35704C7.46262 5.35704 7.14282 5.67684 7.14282 6.07132C7.14282 6.16604 7.10519 6.25688 7.03821 6.32386C6.97124 6.39084 6.88039 6.42847 6.78567 6.42847C6.69095 6.42847 6.60011 6.39084 6.53314 6.32386C6.46616 6.25688 6.42853 6.16604 6.42853 6.07132C6.42857 5.28239 7.06817 4.64279 7.85714 4.64279ZM14.6428 13.2141V12.4998C14.6416 11.5141 13.8428 10.7153 12.8571 10.7141H7.14286C6.15713 10.7153 5.35835 11.5141 5.35718 12.4998V13.2141C5.35695 14.3212 5.75441 15.3915 6.47716 16.2301C7.61591 15.8692 8.80555 15.695 9.99997 15.7141C11.1944 15.695 12.384 15.8692 13.5228 16.2301C14.2455 15.3915 14.6429 14.3212 14.6428 13.2141ZM11.541 13.4138L10.7696 14.2937C10.6735 14.4034 10.5552 14.4912 10.4224 14.5514C10.2897 14.6115 10.1457 14.6427 9.99993 14.6427C9.85419 14.6427 9.71014 14.6115 9.57741 14.5514C9.44468 14.4912 9.32633 14.4034 9.23029 14.2937L8.45885 13.4138C8.33452 13.2718 8.25374 13.0971 8.22618 12.9104C8.19862 12.7237 8.22546 12.5331 8.30347 12.3613C8.38148 12.1895 8.50736 12.0438 8.66603 11.9417C8.82471 11.8396 9.00945 11.7854 9.19814 11.7856H10.8017C10.9904 11.7854 11.1751 11.8395 11.3338 11.9416C11.4925 12.0437 11.6184 12.1894 11.6964 12.3612C11.7744 12.5331 11.8013 12.7237 11.7737 12.9104C11.7461 13.0971 11.6653 13.2718 11.541 13.4138ZM17.4999 5.71422C17.4989 5.06305 17.0587 4.49455 16.4284 4.33068V7.09779C17.0587 6.93389 17.4989 6.36538 17.4999 5.71422ZM17.1427 16.4641V14.5919C17.0263 14.6241 16.9063 14.6412 16.7856 14.6426H16.4284V16.4641C16.6641 16.4159 16.9071 16.4159 17.1427 16.4641Z" fill="white"/>
<path d="M16.7856 19.2855C17.3773 19.2855 17.857 18.8058 17.857 18.2141C17.857 17.6223 17.3773 17.1426 16.7856 17.1426C16.1938 17.1426 15.7141 17.6223 15.7141 18.2141C15.7141 18.8058 16.1938 19.2855 16.7856 19.2855Z" fill="white"/>
</g>
<defs>
<clipPath id="clip0_933_14294">
<rect width="20" height="20" fill="white"/>
</clipPath>
</defs>
</svg>
