<svg width="15" height="15" viewBox="0 0 15 15" fill="none" xmlns="http://www.w3.org/2000/svg">
<path id="Vector" d="M7.49962 0C9.48627 0 11.3987 0.78746 12.8011 2.19739C14.211 3.60807 14.9992 5.51222 14.9992 7.50712C14.9992 10.132 13.6186 12.5694 11.3687 13.9268C9.11879 15.2842 6.32143 15.3592 3.9973 14.1218H3.97405C3.74981 14.0318 3.56907 13.8743 3.35908 13.7693C3.12734 13.6718 2.86411 13.6568 2.62487 13.7326C2.06915 13.9268 1.50667 14.0843 0.929203 14.2193C0.629218 14.2268 0.539223 14.0468 0.539223 13.7543C0.674216 13.1618 0.854207 12.5761 1.06495 12.0069C1.14669 11.7594 1.12494 11.4969 0.99745 11.2637L0.847457 10.9719C0.291735 9.9145 0 8.73706 0 7.54537V7.49962C0 5.51222 0.78671 3.59982 2.19664 2.19739C3.60657 0.78746 5.51147 0 7.49962 0ZM10.9562 6.54717C10.4312 6.54717 9.99699 6.97465 9.99699 7.50712C9.99699 8.03209 10.4312 8.46707 10.9562 8.46707C11.4887 8.46707 11.9161 8.03209 11.9161 7.50712C11.9161 6.97465 11.4887 6.54717 10.9562 6.54717ZM7.49962 6.54717C6.96715 6.54717 6.53892 6.97465 6.53892 7.50712C6.53892 8.03209 6.96715 8.46707 7.49962 8.46707C8.03209 8.46707 8.45882 8.03209 8.45882 7.50712C8.45882 6.97465 8.03209 6.54717 7.49962 6.54717ZM4.04155 6.54717C3.50907 6.54717 3.08159 6.97465 3.08159 7.50712C3.08159 8.03209 3.50907 8.46707 4.04155 8.46707C4.56652 8.46707 5.00225 8.03209 5.00225 7.50712C5.00225 6.97465 4.56652 6.54717 4.04155 6.54717Z" fill="#BBC1DF"/>
</svg>
