<svg width="14" height="14" viewBox="0 0 14 14" fill="none" xmlns="http://www.w3.org/2000/svg">
<g clip-path="url(#clip0_318_5373)">
<path d="M4.08333 0H2.33333C1.71449 0 1.121 0.245833 0.683417 0.683417C0.245833 1.121 0 1.71449 0 2.33333L0 4.08333C0 4.70217 0.245833 5.29566 0.683417 5.73325C1.121 6.17083 1.71449 6.41667 2.33333 6.41667H4.08333C4.70217 6.41667 5.29566 6.17083 5.73325 5.73325C6.17083 5.29566 6.41667 4.70217 6.41667 4.08333V2.33333C6.41667 1.71449 6.17083 1.121 5.73325 0.683417C5.29566 0.245833 4.70217 0 4.08333 0ZM5.25 4.08333C5.25 4.39275 5.12708 4.6895 4.90829 4.90829C4.6895 5.12708 4.39275 5.25 4.08333 5.25H2.33333C2.02391 5.25 1.72717 5.12708 1.50838 4.90829C1.28958 4.6895 1.16667 4.39275 1.16667 4.08333V2.33333C1.16667 2.02391 1.28958 1.72717 1.50838 1.50838C1.72717 1.28958 2.02391 1.16667 2.33333 1.16667H4.08333C4.39275 1.16667 4.6895 1.28958 4.90829 1.50838C5.12708 1.72717 5.25 2.02391 5.25 2.33333V4.08333ZM11.6667 0H9.91667C9.29783 0 8.70434 0.245833 8.26675 0.683417C7.82917 1.121 7.58333 1.71449 7.58333 2.33333V4.08333C7.58333 4.70217 7.82917 5.29566 8.26675 5.73325C8.70434 6.17083 9.29783 6.41667 9.91667 6.41667H11.6667C12.2855 6.41667 12.879 6.17083 13.3166 5.73325C13.7542 5.29566 14 4.70217 14 4.08333V2.33333C14 1.71449 13.7542 1.121 13.3166 0.683417C12.879 0.245833 12.2855 0 11.6667 0ZM12.8333 4.08333C12.8333 4.39275 12.7104 4.6895 12.4916 4.90829C12.2728 5.12708 11.9761 5.25 11.6667 5.25H9.91667C9.60725 5.25 9.3105 5.12708 9.09171 4.90829C8.87292 4.6895 8.75 4.39275 8.75 4.08333V2.33333C8.75 2.02391 8.87292 1.72717 9.09171 1.50838C9.3105 1.28958 9.60725 1.16667 9.91667 1.16667H11.6667C11.9761 1.16667 12.2728 1.28958 12.4916 1.50838C12.7104 1.72717 12.8333 2.02391 12.8333 2.33333V4.08333ZM4.08333 7.58333H2.33333C1.71449 7.58333 1.121 7.82917 0.683417 8.26675C0.245833 8.70434 0 9.29783 0 9.91667L0 11.6667C0 12.2855 0.245833 12.879 0.683417 13.3166C1.121 13.7542 1.71449 14 2.33333 14H4.08333C4.70217 14 5.29566 13.7542 5.73325 13.3166C6.17083 12.879 6.41667 12.2855 6.41667 11.6667V9.91667C6.41667 9.29783 6.17083 8.70434 5.73325 8.26675C5.29566 7.82917 4.70217 7.58333 4.08333 7.58333ZM5.25 11.6667C5.25 11.9761 5.12708 12.2728 4.90829 12.4916C4.6895 12.7104 4.39275 12.8333 4.08333 12.8333H2.33333C2.02391 12.8333 1.72717 12.7104 1.50838 12.4916C1.28958 12.2728 1.16667 11.9761 1.16667 11.6667V9.91667C1.16667 9.60725 1.28958 9.3105 1.50838 9.09171C1.72717 8.87292 2.02391 8.75 2.33333 8.75H4.08333C4.39275 8.75 4.6895 8.87292 4.90829 9.09171C5.12708 9.3105 5.25 9.60725 5.25 9.91667V11.6667ZM11.6667 7.58333H9.91667C9.29783 7.58333 8.70434 7.82917 8.26675 8.26675C7.82917 8.70434 7.58333 9.29783 7.58333 9.91667V11.6667C7.58333 12.2855 7.82917 12.879 8.26675 13.3166C8.70434 13.7542 9.29783 14 9.91667 14H11.6667C12.2855 14 12.879 13.7542 13.3166 13.3166C13.7542 12.879 14 12.2855 14 11.6667V9.91667C14 9.29783 13.7542 8.70434 13.3166 8.26675C12.879 7.82917 12.2855 7.58333 11.6667 7.58333ZM12.8333 11.6667C12.8333 11.9761 12.7104 12.2728 12.4916 12.4916C12.2728 12.7104 11.9761 12.8333 11.6667 12.8333H9.91667C9.60725 12.8333 9.3105 12.7104 9.09171 12.4916C8.87292 12.2728 8.75 11.9761 8.75 11.6667V9.91667C8.75 9.60725 8.87292 9.3105 9.09171 9.09171C9.3105 8.87292 9.60725 8.75 9.91667 8.75H11.6667C11.9761 8.75 12.2728 8.87292 12.4916 9.09171C12.7104 9.3105 12.8333 9.60725 12.8333 9.91667V11.6667Z" fill="#BBC1DF"/>
</g>
<defs>
<clipPath id="clip0_318_5373">
<rect width="14" height="14" fill="white"/>
</clipPath>
</defs>
</svg>
