<svg width="19" height="19" viewBox="0 0 19 19" fill="none" xmlns="http://www.w3.org/2000/svg">
<path d="M9.5 0.125C14.6777 0.125 18.875 4.32233 18.875 9.5C18.875 14.6777 14.6777 18.875 9.5 18.875C4.32233 18.875 0.125 14.6777 0.125 9.5C0.125 4.32233 4.32233 0.125 9.5 0.125ZM9.5 1.6875C5.18528 1.6875 1.6875 5.18528 1.6875 9.5C1.6875 13.8147 5.18528 17.3125 9.5 17.3125C13.8147 17.3125 17.3125 13.8147 17.3125 9.5C17.3125 5.18528 13.8147 1.6875 9.5 1.6875ZM12.4118 12.104C12.6995 11.7825 13.1934 11.7551 13.515 12.0429C13.8364 12.3306 13.8637 12.8245 13.5761 13.1461C12.5758 14.2636 11.1197 14.9687 9.5 14.9687C7.88027 14.9687 6.42419 14.2636 5.42394 13.1461C5.13619 12.8245 5.16355 12.3306 5.48505 12.0429C5.80656 11.7551 6.30045 11.7825 6.58822 12.104C7.30459 12.9044 8.34317 13.4062 9.5 13.4062C10.6568 13.4062 11.6954 12.9044 12.4118 12.104ZM6.76562 6.76562C7.41283 6.76562 7.9375 7.2903 7.9375 7.9375C7.9375 8.5847 7.41283 9.10938 6.76562 9.10938C6.11842 9.10938 5.59375 8.5847 5.59375 7.9375C5.59375 7.2903 6.11842 6.76562 6.76562 6.76562ZM12.2344 6.76562C12.8816 6.76562 13.4062 7.2903 13.4062 7.9375C13.4062 8.5847 12.8816 9.10938 12.2344 9.10938C11.5872 9.10938 11.0625 8.5847 11.0625 7.9375C11.0625 7.2903 11.5872 6.76562 12.2344 6.76562Z" fill="#9C9C9C"/>
</svg>
