<svg width="16" height="16" viewBox="0 0 16 16" fill="none" xmlns="http://www.w3.org/2000/svg">
<g clip-path="url(#clip0_318_5361)">
<path d="M11.332 9.33335C11.332 9.51016 11.2618 9.67973 11.1368 9.80475C11.0117 9.92978 10.8422 10 10.6654 10H5.33203C5.15522 10 4.98565 9.92978 4.86063 9.80475C4.7356 9.67973 4.66536 9.51016 4.66536 9.33335C4.66536 9.15654 4.7356 8.98697 4.86063 8.86194C4.98565 8.73692 5.15522 8.66668 5.33203 8.66668H10.6654C10.8422 8.66668 11.0117 8.73692 11.1368 8.86194C11.2618 8.98697 11.332 9.15654 11.332 9.33335ZM8.66537 11.3333H5.33203C5.15522 11.3333 4.98565 11.4036 4.86063 11.5286C4.7356 11.6536 4.66536 11.8232 4.66536 12C4.66536 12.1768 4.7356 12.3464 4.86063 12.4714C4.98565 12.5964 5.15522 12.6667 5.33203 12.6667H8.66537C8.84218 12.6667 9.01175 12.5964 9.13677 12.4714C9.26179 12.3464 9.33203 12.1768 9.33203 12C9.33203 11.8232 9.26179 11.6536 9.13677 11.5286C9.01175 11.4036 8.84218 11.3333 8.66537 11.3333ZM14.6654 6.99002V12.6667C14.6643 13.5504 14.3128 14.3976 13.6879 15.0225C13.063 15.6474 12.2158 15.999 11.332 16H4.66536C3.78163 15.999 2.9344 15.6474 2.30951 15.0225C1.68462 14.3976 1.33309 13.5504 1.33203 12.6667V3.33335C1.33309 2.44962 1.68462 1.60239 2.30951 0.977495C2.9344 0.352603 3.78163 0.00107394 4.66536 1.53658e-05H7.67537C8.28844 -0.00156258 8.89575 0.118407 9.46218 0.352988C10.0286 0.587569 10.5429 0.932107 10.9754 1.36668L13.298 3.69068C13.7329 4.12284 14.0776 4.63699 14.3123 5.20333C14.547 5.76968 14.667 6.37696 14.6654 6.99002ZM10.0327 2.30935C9.82289 2.10612 9.58732 1.9313 9.33203 1.78935V4.66668C9.33203 4.84349 9.40227 5.01306 9.52729 5.13809C9.65232 5.26311 9.82189 5.33335 9.9987 5.33335H12.876C12.734 5.07814 12.5589 4.84278 12.3554 4.63335L10.0327 2.30935ZM13.332 6.99002C13.332 6.88002 13.3107 6.77468 13.3007 6.66668H9.9987C9.46827 6.66668 8.95956 6.45597 8.58449 6.0809C8.20941 5.70582 7.9987 5.19711 7.9987 4.66668V1.36468C7.8907 1.35468 7.7847 1.33335 7.67537 1.33335H4.66536C4.13493 1.33335 3.62622 1.54406 3.25115 1.91914C2.87608 2.29421 2.66536 2.80292 2.66536 3.33335V12.6667C2.66536 13.1971 2.87608 13.7058 3.25115 14.0809C3.62622 14.456 4.13493 14.6667 4.66536 14.6667H11.332C11.8625 14.6667 12.3712 14.456 12.7462 14.0809C13.1213 13.7058 13.332 13.1971 13.332 12.6667V6.99002Z" fill="#BBC1DF"/>
</g>
<defs>
<clipPath id="clip0_318_5361">
<rect width="16" height="16" fill="white"/>
</clipPath>
</defs>
</svg>
