<svg width="25" height="25" viewBox="0 0 25 25" fill="none" xmlns="http://www.w3.org/2000/svg">
<path d="M13.3028 4.57908C13.3012 4.5799 13.3005 4.58031 13.2997 4.58072L13.2989 4.58113L6.96836 7.85196C5.51374 8.60353 4.43171 9.90156 3.92033 11.5084C3.40815 13.1156 3.53964 14.8004 4.2908 16.2542C5.04237 17.7088 6.34041 18.7908 7.94722 19.3022C9.55366 19.8148 11.2384 19.6833 12.693 18.9317L19.0243 15.6605L18.2065 14.0777L11.8752 17.3489C10.844 17.8817 9.6408 17.973 8.48809 17.605C7.33499 17.2382 6.40643 16.4676 5.87363 15.4364C5.34123 14.406 5.24999 13.2028 5.61758 12.0492C5.98437 10.8962 6.75496 9.96759 7.78617 9.43479L14.1175 6.16355L13.7086 5.37213L14.1183 6.16314C14.1191 6.16273 14.1198 6.16232 14.1206 6.16191C14.7459 5.83888 15.467 5.78111 16.152 6.00072C16.8374 6.21913 17.3938 6.68468 17.7192 7.31265C18.0427 7.93667 18.1008 8.65862 17.8824 9.34401C17.6628 10.031 17.1965 10.5878 16.5709 10.912L10.2396 14.1833C10.037 14.2879 9.79618 14.3051 9.56452 14.2313C9.33046 14.1567 9.14396 14.0034 9.03928 13.8008C8.93623 13.6013 8.91902 13.3545 8.99208 13.1253C9.06588 12.8916 9.21918 12.7051 9.42179 12.6004L15.7531 9.3292L14.9353 7.74637L8.60398 11.0176C7.97876 11.3406 7.51321 11.897 7.29445 12.5856C7.07565 13.2722 7.13383 13.9941 7.45645 14.6186C7.77908 15.243 8.33467 15.7089 9.02365 15.9285C9.71023 16.1473 10.433 16.0887 11.0574 15.7661L17.3895 12.4944C18.4369 11.9523 19.2151 11.0268 19.5793 9.88607C19.9435 8.74536 19.8438 7.53948 19.3008 6.49247C18.7578 5.44346 17.8316 4.66568 16.6937 4.30306C15.555 3.93886 14.3507 4.03769 13.3028 4.57908Z" fill="#9C9C9C"/>
</svg>
