<svg width="32" height="32" viewBox="0 0 32 32" fill="none" xmlns="http://www.w3.org/2000/svg">
<rect width="32" height="32" rx="16" fill="#EBA63E"/>
<path d="M8.3446 16.2921L11.7357 18.5134V22.2259C11.715 22.8938 12.5925 23.2666 13.057 22.7747L15.1009 20.7243L17.9603 22.5987C18.0894 22.6815 18.2339 22.7281 18.3836 22.7281C18.7036 22.7281 19.0029 22.521 19.1113 22.2207L23.9579 9.03787C23.994 8.93434 24.0095 8.82559 23.994 8.72202C23.9734 8.18354 23.3798 7.84697 22.8946 8.06961L8.43751 14.9406C7.90073 15.1736 7.84396 15.9866 8.3446 16.2921ZM19.5191 11.3938L13.2686 17.6642L10.3472 15.7484L19.5191 11.3938Z" fill="white"/>
</svg>
