<svg width="15" height="15" viewBox="0 0 15 15" fill="none" xmlns="http://www.w3.org/2000/svg">
<path d="M8.27995 2.32441H2.589C2.21166 2.32441 1.84979 2.47431 1.58297 2.74112C1.31615 3.00794 1.16626 3.36982 1.16626 3.74715V10.8608M1.16626 10.8608V12.2836C1.16626 12.6609 1.31615 13.0228 1.58297 13.2896C1.84979 13.5564 2.21166 13.7063 2.589 13.7063H11.1254C11.5028 13.7063 11.8646 13.5564 12.1315 13.2896C12.3983 13.0228 12.5482 12.6609 12.5482 12.2836V9.4381M1.16626 10.8608L4.4286 7.5985C4.6954 7.33178 5.05722 7.18194 5.43448 7.18194C5.81174 7.18194 6.17355 7.33178 6.44035 7.5985L8.27995 9.4381M12.5482 6.59263V9.4381M12.5482 9.4381L11.4199 8.30987C11.1531 8.04315 10.7913 7.89331 10.4141 7.89331C10.0368 7.89331 9.67499 8.04315 9.40819 8.30987L8.27995 9.4381M8.27995 9.4381L9.70269 10.8608M11.1254 2.32441H13.9709M12.5482 0.901672V3.74715M8.27995 5.16989H8.28707" stroke="#2E3790" stroke-width="0.853643" stroke-linecap="round" stroke-linejoin="round"/>
</svg>
