<svg width="16" height="16" viewBox="0 0 16 16" fill="none" xmlns="http://www.w3.org/2000/svg">
<path d="M14.2751 7.7425H14.1739L12.9061 4.771C12.8485 4.63574 12.7524 4.52042 12.6297 4.43942C12.507 4.35842 12.3631 4.31532 12.2161 4.3155H10.5804V3.2405C10.5802 3.07736 10.5153 2.92096 10.4 2.80558C10.2846 2.6902 10.1283 2.62526 9.96513 2.625H6.34013C6.17699 2.6252 6.02059 2.69007 5.90521 2.80541C5.78983 2.92074 5.72489 3.07711 5.72463 3.24025V4.31525H3.78438C3.63732 4.31509 3.49348 4.35823 3.37078 4.43927C3.24808 4.52032 3.15195 4.63569 3.09438 4.771L1.82663 7.7425H1.72488C1.5617 7.7427 1.40526 7.80761 1.28987 7.923C1.17448 8.03838 1.10957 8.19482 1.10938 8.358V9.33275C1.10957 9.49597 1.17452 9.65245 1.28996 9.76784C1.4054 9.88324 1.5619 9.94812 1.72513 9.94825H1.82663L3.09438 12.9195C3.15201 13.0547 3.24817 13.17 3.37086 13.251C3.49355 13.332 3.63736 13.3751 3.78438 13.375H12.2164C12.3634 13.3751 12.5072 13.332 12.6299 13.251C12.7526 13.17 12.8487 13.0547 12.9064 12.9195L14.1741 9.94825H14.2756C14.4388 9.94805 14.5952 9.88314 14.7106 9.76775C14.826 9.65237 14.8909 9.49593 14.8911 9.33275V8.35775C14.8909 8.19453 14.8259 8.03808 14.7104 7.92273C14.5949 7.80738 14.4383 7.74257 14.2751 7.7425ZM6.22463 3.24C6.22469 3.20941 6.23689 3.1801 6.25854 3.15849C6.2802 3.13688 6.30954 3.12475 6.34013 3.12475H9.96513C9.99571 3.12475 10.0251 3.13688 10.0467 3.15849C10.0684 3.1801 10.0806 3.20941 10.0806 3.24V4.315H9.83062V3.625C9.83062 3.5587 9.80429 3.49511 9.7574 3.44822C9.71052 3.40134 9.64693 3.375 9.58062 3.375H6.72437C6.65807 3.375 6.59448 3.40134 6.5476 3.44822C6.50071 3.49511 6.47437 3.5587 6.47437 3.625V4.31575H6.22437L6.22463 3.24ZM6.97463 4.315V3.875H9.33062V4.31575L6.97463 4.315ZM3.55412 4.9675C3.57331 4.92239 3.60535 4.88392 3.64625 4.85689C3.68715 4.82986 3.7351 4.81547 3.78412 4.8155H12.2161C12.2651 4.81547 12.3131 4.82986 12.354 4.85689C12.3949 4.88392 12.4269 4.92239 12.4461 4.9675L13.6304 7.7425H10.0474V7.566C10.0472 7.40282 9.98227 7.24638 9.86688 7.13099C9.75149 7.01561 9.59505 6.9507 9.43188 6.9505H6.87262C6.70944 6.9507 6.55301 7.01561 6.43762 7.13099C6.32223 7.24638 6.25732 7.40282 6.25712 7.566V7.7425H2.37012L3.55412 4.9675ZM6.75737 7.566C6.75737 7.53537 6.76954 7.50599 6.7912 7.48433C6.81286 7.46267 6.84224 7.4505 6.87287 7.4505H9.43188C9.46246 7.45057 9.49178 7.46276 9.51338 7.48442C9.53499 7.50607 9.54712 7.53541 9.54712 7.566V10.1248C9.54712 10.1553 9.53499 10.1847 9.51338 10.2063C9.49178 10.228 9.46246 10.2402 9.43188 10.2402H6.87262C6.85746 10.2402 6.84244 10.2373 6.82842 10.2315C6.81441 10.2257 6.80168 10.2171 6.79095 10.2064C6.78023 10.1957 6.77172 10.183 6.76592 10.169C6.76011 10.1549 6.75712 10.1399 6.75712 10.1248L6.75737 7.566ZM1.60938 9.3325V8.3575C1.60944 8.32691 1.62164 8.2976 1.64329 8.27599C1.66495 8.25438 1.69429 8.24225 1.72488 8.24225H6.25737V9.448H1.72513C1.69451 9.44793 1.66517 9.43574 1.64353 9.4141C1.62188 9.39245 1.60969 9.36311 1.60963 9.3325H1.60938ZM12.4461 12.723C12.4269 12.7681 12.3949 12.8065 12.354 12.8335C12.3131 12.8605 12.2651 12.8748 12.2161 12.8748H3.78412C3.73512 12.8748 3.68718 12.8605 3.64628 12.8335C3.60537 12.8065 3.57332 12.7681 3.55412 12.723L2.36988 9.948H6.25737V10.1245C6.25757 10.2877 6.32248 10.4441 6.43787 10.5595C6.55326 10.6749 6.70969 10.7398 6.87287 10.74H9.43188C9.59501 10.7397 9.75139 10.6748 9.86672 10.5594C9.98205 10.444 10.0469 10.2876 10.0471 10.1245V9.948H13.6301L12.4461 12.723ZM14.3906 9.3325C14.3906 9.36307 14.3784 9.39237 14.3568 9.41401C14.3352 9.43565 14.3059 9.44787 14.2754 9.448H10.0471V8.2425H14.2754C14.306 8.24257 14.3353 8.25476 14.3569 8.27642C14.3785 8.29807 14.3906 8.32741 14.3906 8.358V9.3325Z" fill="#BBC1DF" stroke="#BBC1DF" stroke-width="0.2"/>
</svg>
