<svg width="27" height="29" viewBox="0 0 27 29" fill="none" xmlns="http://www.w3.org/2000/svg">
<path id="Vector" d="M0.706917 19.15L3.40968 16.5257V10.0591C3.37372 7.65774 4.23873 5.32496 5.84499 3.49144C7.45124 1.65792 9.69026 0.44749 12.1486 0.0836556C13.5754 -0.0977761 15.0258 0.0166912 16.4031 0.41942C17.7804 0.822148 19.0529 1.50388 20.1357 2.41912C21.2185 3.33436 22.0868 4.46207 22.6825 5.727C23.2782 6.99193 23.5877 8.36499 23.5903 9.75457V16.5257L26.2931 19.15C26.6326 19.4833 26.8628 19.9058 26.955 20.3647C27.0471 20.8237 26.9972 21.2987 26.8113 21.7303C26.6254 22.162 26.3119 22.5312 25.91 22.7917C25.508 23.0523 25.0354 23.1926 24.5513 23.1953H19.5061V23.6882C19.436 25.1602 18.7645 26.5453 17.6386 27.54C16.5128 28.5347 15.0246 29.0579 13.5 28.9949C11.9754 29.0579 10.4872 28.5347 9.36135 27.54C8.23554 26.5453 7.56399 25.1602 7.49386 23.6882V23.1953H2.4487C1.96458 23.1926 1.492 23.0523 1.09004 22.7917C0.688074 22.5312 0.374567 22.162 0.188705 21.7303C0.00284195 21.2987 -0.0471287 20.8237 0.0450401 20.3647C0.137209 19.9058 0.367428 19.4833 0.706917 19.15ZM10.4969 23.6882C10.5802 24.3856 10.9389 25.0251 11.4983 25.4735C12.0578 25.9219 12.7748 26.1445 13.5 26.0951C14.2252 26.1445 14.9422 25.9219 15.5017 25.4735C16.0611 25.0251 16.4198 24.3856 16.5031 23.6882V23.1953H10.4969V23.6882ZM23.245 20.2954L21.4732 18.5845C21.1921 18.3148 20.9691 17.994 20.8171 17.6406C20.6651 17.2872 20.5869 16.9083 20.5872 16.5257V9.75457C20.5864 8.77646 20.369 7.80984 19.9494 6.91957C19.5299 6.02931 18.918 5.236 18.1548 4.59288C17.4019 3.93416 16.5097 3.44129 15.5401 3.14838C14.5704 2.85547 13.5465 2.76953 12.539 2.89649C10.8025 3.16875 9.22633 4.03758 8.10064 5.34304C6.97495 6.64849 6.37553 8.30268 6.41275 10.0011V16.5257C6.41504 16.9073 6.33928 17.2856 6.18984 17.6389C6.04039 17.9922 5.82019 18.3136 5.54186 18.5845L3.75503 20.2954H23.245Z" fill="#2E3790"/>
</svg>
