<svg xmlns="http://www.w3.org/2000/svg" width="20" height="20" viewBox="0 0 20 20" fill="none">
  <g clip-path="url(#clip0_634_7922)">
    <path d="M18.8281 7.13203V5.27344C18.8281 4.30418 18.0396 3.51562 17.0703 3.51562H16.1411L12.7975 0.172031C12.7968 0.171328 12.796 0.170664 12.7953 0.169922C12.6877 0.0635741 12.5432 0.00285961 12.3919 0.000429687C12.3888 0.000390625 12.3859 0 12.3829 0H4.10156C3.77797 0 3.51562 0.262344 3.51562 0.585938V3.51562H2.92969C1.96043 3.51562 1.17188 4.30418 1.17188 5.27344V7.13203C0.489883 7.37391 0 8.0252 0 8.78906V15.8984C0 16.8677 0.788555 17.6562 1.75781 17.6562H3.51562V19.4141C3.51562 19.7377 3.77797 20 4.10156 20H15.8984C16.222 20 16.4844 19.7377 16.4844 19.4141V17.6562H18.2422C19.2114 17.6562 20 16.8677 20 15.8984V8.78906C20 8.0252 19.5101 7.37391 18.8281 7.13203ZM16.4844 4.6875H17.0703C17.3934 4.6875 17.6562 4.95035 17.6562 5.27344V7.03125H16.4844V4.6875ZM12.9688 2.00051L14.4839 3.51562H12.9688V2.00051ZM4.6875 1.17188H11.7969V4.10156C11.7969 4.42516 12.0592 4.6875 12.3828 4.6875H15.3125V7.03125H4.6875V1.17188ZM2.34375 5.27344C2.34375 4.95035 2.6066 4.6875 2.92969 4.6875H3.51562V7.03125H2.34375V5.27344ZM15.3125 18.8281H4.6875V12.9688H15.3125V18.8281ZM18.8281 15.8984C18.8281 16.2215 18.5653 16.4844 18.2422 16.4844H16.4844V12.9688H17.0703C17.3939 12.9688 17.6562 12.7064 17.6562 12.3828C17.6562 12.0592 17.3939 11.7969 17.0703 11.7969H2.92969C2.60609 11.7969 2.34375 12.0592 2.34375 12.3828C2.34375 12.7064 2.60609 12.9688 2.92969 12.9688H3.51562V16.4844H1.75781C1.43473 16.4844 1.17188 16.2215 1.17188 15.8984V8.78906C1.17188 8.46598 1.43473 8.20312 1.75781 8.20312H18.2422C18.5653 8.20312 18.8281 8.46598 18.8281 8.78906V15.8984Z" fill="#2E3790"/>
    <path d="M13.5547 14.1406H6.44531C6.12172 14.1406 5.85938 14.403 5.85938 14.7266C5.85938 15.0502 6.12172 15.3125 6.44531 15.3125H13.5547C13.8783 15.3125 14.1406 15.0502 14.1406 14.7266C14.1406 14.403 13.8783 14.1406 13.5547 14.1406ZM13.5547 16.4844H6.44531C6.12172 16.4844 5.85938 16.7467 5.85938 17.0703C5.85938 17.3939 6.12172 17.6562 6.44531 17.6562H13.5547C13.8783 17.6562 14.1406 17.3939 14.1406 17.0703C14.1406 16.7467 13.8783 16.4844 13.5547 16.4844ZM4.10156 9.375H2.92969C2.60609 9.375 2.34375 9.63734 2.34375 9.96094C2.34375 10.2845 2.60609 10.5469 2.92969 10.5469H4.10156C4.42516 10.5469 4.6875 10.2845 4.6875 9.96094C4.6875 9.63734 4.42516 9.375 4.10156 9.375Z" fill="#2E3790"/>
  </g>
  <defs>
    <clipPath id="clip0_634_7922">
      <rect width="20" height="20" fill="white"/>
    </clipPath>
  </defs>
</svg>