<svg xmlns="http://www.w3.org/2000/svg" width="17" height="17" viewBox="0 0 17 17" fill="none">
  <g clip-path="url(#clip0_854_7137)">
    <path d="M7.53125 7.90234C7.70375 7.90234 7.84375 7.76234 7.84375 7.58984C7.84375 7.41734 7.70375 7.27734 7.53125 7.27734C7.35875 7.27734 7.21875 7.41734 7.21875 7.58984C7.21875 7.76234 7.35875 7.90234 7.53125 7.90234Z" fill="#BBC1DF" stroke="#BBC1DF" stroke-width="0.2"/>
    <path d="M0.3125 4.15247H3.06578C3.44191 5.7285 4.63209 10.7165 5.05834 12.5029C5.09036 12.6792 5.15998 12.8465 5.26246 12.9934C5.36494 13.1403 5.49788 13.2634 5.65222 13.3544C5.36547 13.6378 5.1875 14.0309 5.1875 14.465C5.1875 15.3265 5.88844 16.0275 6.75 16.0275C7.61156 16.0275 8.3125 15.3265 8.3125 14.465C8.31285 14.1266 8.20284 13.7974 7.99916 13.5272H10.5008C10.2971 13.7974 10.1871 14.1266 10.1875 14.465C10.1875 15.3266 10.8884 16.0275 11.75 16.0275C12.6116 16.0275 13.3125 15.3266 13.3125 14.465C13.3125 14.1136 13.1958 13.7888 12.9992 13.5275H13.625C13.7976 13.5275 13.9375 13.3876 13.9375 13.215C13.9375 13.0424 13.7976 12.9025 13.625 12.9025H6.28781C6.1407 12.9027 5.99824 12.8509 5.8856 12.7563C5.77296 12.6617 5.6974 12.5303 5.67225 12.3853C5.67114 12.379 5.66983 12.3728 5.66834 12.3666L5.49794 11.6525H13.3619C13.5588 11.6527 13.7507 11.5909 13.9104 11.4758C14.0701 11.3607 14.1894 11.1982 14.2515 11.0114L14.7357 9.55875L14.7361 9.55766L15.3606 7.684C15.3607 7.6835 15.361 7.683 15.3611 7.68253L15.9839 5.81378C15.9996 5.76682 16.0039 5.71679 15.9964 5.66784C15.989 5.61889 15.97 5.57241 15.941 5.53225C15.9121 5.49209 15.874 5.45939 15.8299 5.43683C15.7858 5.41428 15.737 5.40251 15.6875 5.4025H14.2769C14.5822 4.94481 14.75 4.40319 14.75 3.84375C14.75 2.29297 13.4883 1.03125 11.9375 1.03125C10.3867 1.03125 9.125 2.29297 9.125 3.84375C9.125 4.40331 9.29284 4.94494 9.59803 5.40247H4.00656L3.61644 3.76747C3.60014 3.69911 3.56128 3.63824 3.50613 3.59469C3.45097 3.55114 3.38274 3.52746 3.31247 3.52747H0.3125C0.139906 3.52747 0 3.66734 0 3.83997C0 4.01256 0.139906 4.15247 0.3125 4.15247ZM7.6875 14.465C7.6875 14.9819 7.26697 15.4025 6.75 15.4025C6.23303 15.4025 5.8125 14.9819 5.8125 14.465C5.8125 13.948 6.23303 13.5275 6.75 13.5275C7.26697 13.5275 7.6875 13.9473 7.6875 14.465ZM12.6875 14.465C12.6875 14.9819 12.267 15.4025 11.75 15.4025C11.233 15.4025 10.8125 14.9819 10.8125 14.465C10.8125 13.948 11.233 13.5275 11.75 13.5275C12.267 13.5275 12.6875 13.948 12.6875 14.465ZM5.05053 9.77747H7.51197L7.65088 11.0275H5.34888L5.05053 9.77747ZM8.27966 11.0275L8.14087 9.77747H11.1718L11.0328 11.0275H8.27966ZM13.3618 11.0275H11.6616L11.8005 9.77747H14.0039L13.6584 10.8138C13.6377 10.8761 13.5979 10.9303 13.5447 10.9686C13.4914 11.007 13.4274 11.0276 13.3618 11.0275H13.3618ZM14.2123 9.15247H11.87L12.0089 7.90247H14.6289L14.2123 9.15247ZM14.8373 7.27747H12.0784L12.1483 6.64772C12.7192 6.60506 13.2633 6.38861 13.7075 6.02747H15.2539L14.8373 7.27747ZM11.9375 1.65625C13.1437 1.65625 14.125 2.63756 14.125 3.84375C14.125 5.04187 13.1495 6.03125 11.9375 6.03125C11.9183 6.03125 11.8993 6.031 11.8804 6.03028C11.879 6.03016 11.8777 6.03016 11.8763 6.03016C10.697 5.99794 9.75 5.02609 9.75 3.84375C9.75 2.63756 10.7313 1.65625 11.9375 1.65625ZM7.09531 6.02747L7.13416 6.37731C7.15184 6.53713 7.28709 6.65528 7.44434 6.65528C7.45581 6.65528 7.46753 6.65466 7.47925 6.65331C7.65075 6.63441 7.77428 6.47988 7.75525 6.30834L7.72412 6.02747H10.1672C10.5574 6.344 11.0252 6.55021 11.5221 6.62466L11.4495 7.27747H8.78125C8.60866 7.27747 8.46875 7.41734 8.46875 7.58997C8.46875 7.76256 8.60866 7.90247 8.78125 7.90247H11.38L11.2412 9.15247H8.07141L8.03125 8.79112C8.01219 8.61962 7.85744 8.49584 7.68616 8.515C7.51466 8.53406 7.391 8.68859 7.41003 8.86009L7.44253 9.15247H4.90137L4.60316 7.90247H6.28125C6.45384 7.90247 6.59375 7.76256 6.59375 7.58997C6.59375 7.41734 6.45384 7.27747 6.28125 7.27747H4.45397L4.15575 6.02747H7.09531Z" fill="#BBC1DF" stroke="#BBC1DF" stroke-width="0.2"/>
    <path d="M11.4041 5.01882C11.4651 5.07982 11.545 5.11038 11.625 5.11038C11.705 5.11038 11.7849 5.07985 11.8459 5.01882L13.4084 3.45632C13.5305 3.33435 13.5305 3.13647 13.4084 3.01441C13.2863 2.89235 13.0886 2.89232 12.9666 3.01441L11.625 4.35597L10.9084 3.63941C10.7864 3.51735 10.5886 3.51735 10.4666 3.63941C10.3445 3.76147 10.3445 3.95935 10.4666 4.08141L11.4041 5.01882Z" fill="#BBC1DF" stroke="#BBC1DF" stroke-width="0.2"/>
  </g>
  <defs>
    <clipPath id="clip0_854_7137">
      <rect width="17" height="17" fill="white"/>
    </clipPath>
  </defs>
</svg>