<svg width="11" height="15" viewBox="0 0 11 15" fill="none" xmlns="http://www.w3.org/2000/svg">
<path d="M1.04711 2.37305C0.909371 2.37253 0.772893 2.39929 0.645551 2.45178C0.518209 2.50428 0.402524 2.58148 0.305174 2.67892C0.207824 2.77636 0.130736 2.89212 0.0783597 3.01951C0.0259831 3.1469 -0.000645041 3.28341 1.18642e-05 3.42115V13.9527C-0.000513538 14.0904 0.0262118 14.2268 0.0786473 14.354C0.131083 14.4813 0.208191 14.597 0.305528 14.6943C0.402865 14.7916 0.518505 14.8687 0.645782 14.9212C0.773059 14.9736 0.909455 15.0003 1.04711 14.9998H9.48151C9.61916 15.0003 9.75556 14.9736 9.88284 14.9212C10.0101 14.8687 10.1258 14.7916 10.2231 14.6943C10.3204 14.597 10.3975 14.4813 10.45 14.354C10.5024 14.2268 10.5291 14.0904 10.5286 13.9527V3.42115C10.5291 3.28349 10.5024 3.14709 10.45 3.01982C10.3975 2.89254 10.3204 2.7769 10.2231 2.67956C10.1258 2.58223 10.0101 2.50512 9.88284 2.45268C9.75556 2.40025 9.61916 2.37352 9.48151 2.37405H8.42448C8.42161 2.6519 8.30955 2.91747 8.11252 3.11339C7.91548 3.30931 7.64928 3.41986 7.37142 3.42115H3.1572C2.581 3.42115 2.10811 2.94926 2.10414 2.37405L1.04711 2.37305ZM2.63166 4.47619C3.08468 4.47619 3.5059 4.70866 3.74731 5.09213C3.78366 5.15112 3.79528 5.22207 3.77966 5.28958C3.76404 5.35709 3.72243 5.41572 3.66386 5.45275C3.63464 5.47131 3.60206 5.48392 3.56796 5.48986C3.53387 5.49581 3.49894 5.49498 3.46517 5.48741C3.4314 5.47985 3.39945 5.4657 3.37115 5.44577C3.34285 5.42584 3.31876 5.40053 3.30026 5.37129C3.22919 5.25822 3.13054 5.16508 3.01359 5.1006C2.89663 5.03613 2.76521 5.00245 2.63166 5.00272C2.5281 5.00233 2.42548 5.02243 2.32972 5.06188C2.23396 5.10134 2.14695 5.15935 2.07372 5.23258C2.00049 5.30582 1.94247 5.39282 1.90302 5.48858C1.86357 5.58434 1.84346 5.68696 1.84386 5.79053C1.84386 6.23062 2.19256 6.58231 2.63166 6.58231C2.66632 6.58204 2.70069 6.58863 2.73279 6.60168C2.7649 6.61473 2.79411 6.63399 2.81875 6.65836C2.8434 6.68273 2.86299 6.71172 2.8764 6.74367C2.88981 6.77563 2.89679 6.80992 2.89692 6.84458C2.89679 6.87923 2.88981 6.91352 2.8764 6.94548C2.86299 6.97744 2.8434 7.00643 2.81875 7.0308C2.79411 7.05516 2.7649 7.07442 2.73279 7.08748C2.70069 7.10053 2.66632 7.10711 2.63166 7.10685C1.90843 7.10685 1.31633 6.51475 1.31633 5.79053C1.31633 5.0663 1.90843 4.47619 2.63166 4.47619ZM5.00104 4.73747C5.03582 4.73757 5.07022 4.74455 5.10228 4.75802C5.13434 4.7715 5.16341 4.79118 5.18781 4.81595C5.21229 4.8404 5.23172 4.86944 5.24497 4.9014C5.25822 4.93336 5.26504 4.96762 5.26504 5.00222C5.26504 5.03682 5.25822 5.07108 5.24497 5.10305C5.23172 5.13501 5.21229 5.16404 5.18781 5.18849L3.60823 6.76709C3.55889 6.81623 3.49209 6.84382 3.42245 6.84382C3.35281 6.84382 3.28602 6.81623 3.23668 6.76709L2.44589 5.97729C2.42141 5.95284 2.40199 5.92381 2.38874 5.89184C2.37548 5.85988 2.36866 5.82562 2.36866 5.79102C2.36866 5.75642 2.37548 5.72216 2.38874 5.6902C2.40199 5.65824 2.42141 5.6292 2.44589 5.60475C2.47034 5.58027 2.49938 5.56085 2.53134 5.5476C2.5633 5.53435 2.59756 5.52753 2.63216 5.52753C2.66676 5.52753 2.70102 5.53435 2.73298 5.5476C2.76495 5.56085 2.79398 5.58027 2.81843 5.60475L3.42344 6.20877L4.81626 4.81595C4.86507 4.76641 4.9315 4.73819 5.00104 4.73747ZM5.52757 5.79053H8.95001C8.98483 5.79039 9.01934 5.79717 9.05153 5.81047C9.08371 5.82376 9.11294 5.84331 9.13752 5.86798C9.1621 5.89265 9.18153 5.92195 9.19471 5.95419C9.20788 5.98642 9.21453 6.02095 9.21427 6.05578C9.21414 6.09035 9.2072 6.12456 9.19385 6.15645C9.1805 6.18834 9.161 6.21729 9.13646 6.24164C9.11192 6.266 9.08283 6.28528 9.05083 6.29839C9.01884 6.3115 8.98458 6.31818 8.95001 6.31805H5.52658C5.4571 6.31779 5.39054 6.29007 5.34142 6.24094C5.29229 6.19181 5.26457 6.12526 5.26431 6.05578C5.26405 6.02112 5.27063 5.98675 5.28368 5.95465C5.29673 5.92254 5.31599 5.89333 5.34036 5.86869C5.36473 5.84404 5.39372 5.82445 5.42568 5.81104C5.45763 5.79763 5.49292 5.79066 5.52757 5.79053ZM2.63067 7.63238C3.35589 7.63238 3.94898 8.22647 3.94898 8.95069C3.94898 9.67393 3.3549 10.266 2.63067 10.266C1.90644 10.266 1.31534 9.67393 1.31534 8.95069C1.31612 8.60181 1.45486 8.2674 1.70128 8.02043C1.9477 7.77345 2.28179 7.63396 2.63067 7.63238ZM2.6108 8.15891C2.40447 8.1636 2.20826 8.24928 2.06457 8.39743C1.92088 8.54558 1.84124 8.74431 1.84286 8.95069C1.84247 9.05426 1.86258 9.15688 1.90203 9.25264C1.94148 9.3484 1.99949 9.4354 2.07273 9.50864C2.14596 9.58187 2.23296 9.63988 2.32872 9.67933C2.42448 9.71879 2.5271 9.73889 2.63067 9.7385C2.73453 9.73929 2.83752 9.71948 2.93368 9.68022C3.02984 9.64095 3.11726 9.58302 3.19089 9.50976C3.26452 9.4365 3.3229 9.34937 3.36264 9.25341C3.40239 9.15745 3.42272 9.05456 3.42245 8.95069C3.42298 8.84657 3.40286 8.74337 3.36325 8.64707C3.32365 8.55077 3.26535 8.46327 3.19172 8.38965C3.11809 8.31602 3.03059 8.25772 2.93429 8.21811C2.83799 8.17851 2.7348 8.15839 2.63067 8.15891H2.6108ZM5.00005 8.68544H8.94902C8.98384 8.68531 9.01835 8.69209 9.05053 8.70538C9.08272 8.71868 9.11195 8.73823 9.13652 8.7629C9.1611 8.78757 9.18054 8.81687 9.19372 8.84911C9.20689 8.88134 9.21354 8.91587 9.21328 8.95069C9.21275 9.02034 9.18465 9.08695 9.13512 9.13592C9.08559 9.18489 9.01867 9.21224 8.94902 9.21197H5.00005C4.93074 9.21171 4.86434 9.18413 4.81523 9.13522C4.76613 9.0863 4.7383 9.02 4.73778 8.95069C4.73752 8.91604 4.7441 8.88167 4.75715 8.84957C4.7702 8.81746 4.78946 8.78825 4.81383 8.7636C4.8382 8.73896 4.86719 8.71937 4.89915 8.70596C4.9311 8.69254 4.96539 8.68557 5.00005 8.68544ZM2.63067 10.7926C2.97955 10.7933 3.31396 10.9321 3.56094 11.1785C3.80791 11.4249 3.94741 11.759 3.94898 12.1079C3.94898 12.8331 3.3549 13.4262 2.63067 13.4262C1.90644 13.4262 1.31534 12.8321 1.31534 12.1079C1.31534 11.3846 1.90744 10.7926 2.63067 10.7926ZM2.63067 11.3191C2.52702 11.3187 2.42432 11.3388 2.32849 11.3783C2.23267 11.4179 2.14562 11.476 2.07237 11.5493C1.99913 11.6226 1.94113 11.7098 1.90174 11.8056C1.86235 11.9015 1.84234 12.0042 1.84286 12.1079C1.84286 12.548 2.19156 12.8997 2.63067 12.8997C2.7348 12.9002 2.83799 12.8801 2.93429 12.8405C3.03059 12.8009 3.11809 12.7426 3.19172 12.6689C3.26535 12.5953 3.32365 12.5078 3.36325 12.4115C3.40286 12.3152 3.42298 12.212 3.42245 12.1079C3.42285 12.0039 3.40262 11.9009 3.36293 11.8049C3.32324 11.7088 3.26489 11.6215 3.19125 11.5482C3.1176 11.4748 3.03014 11.4168 2.93391 11.3775C2.83769 11.3381 2.73462 11.3183 2.63067 11.3191ZM5.00005 11.8456H8.94902C8.98359 11.8455 9.01785 11.8522 9.04984 11.8653C9.08183 11.8784 9.11093 11.8977 9.13547 11.922C9.16 11.9464 9.17951 11.9753 9.19286 12.0072C9.20621 12.0391 9.21315 12.0733 9.21328 12.1079C9.21354 12.1427 9.20689 12.1772 9.19372 12.2095C9.18054 12.2417 9.1611 12.271 9.13652 12.2957C9.11195 12.3203 9.08272 12.3399 9.05053 12.3532C9.01835 12.3665 8.98384 12.3733 8.94902 12.3731H5.00005C4.96539 12.373 4.9311 12.366 4.89915 12.3526C4.86719 12.3392 4.8382 12.3196 4.81383 12.295C4.78946 12.2703 4.7702 12.2411 4.75715 12.209C4.7441 12.1769 4.73752 12.1425 4.73778 12.1079C4.7383 12.0386 4.76613 11.9723 4.81523 11.9234C4.86434 11.8744 4.93074 11.8469 5.00005 11.8466V11.8456Z" fill="#BBC1DF"/>
<path d="M4.47767 0H6.05527C6.34933 0 6.5818 0.233461 6.5818 0.526529V1.05306C6.58193 1.08771 6.5889 1.122 6.60231 1.15396C6.61572 1.18592 6.63531 1.21491 6.65996 1.23928C6.6846 1.26364 6.71381 1.28291 6.74592 1.29596C6.77802 1.30901 6.81239 1.31559 6.84705 1.31533H7.37358C7.66664 1.31533 7.9001 1.54879 7.9001 1.84186V2.36938C7.9001 2.66344 7.66664 2.89591 7.37358 2.89591H3.15936C3.09006 2.89644 3.02136 2.88318 2.95724 2.85691C2.89312 2.83063 2.83486 2.79187 2.78587 2.74287C2.73687 2.69387 2.6981 2.63562 2.67183 2.5715C2.64556 2.50738 2.6323 2.43867 2.63283 2.36938V1.84285C2.63283 1.54879 2.86629 1.31632 3.15936 1.31632H3.68589C3.72054 1.31658 3.75491 1.31 3.78701 1.29695C3.81912 1.2839 3.84833 1.26464 3.87298 1.24027C3.89762 1.2159 3.91721 1.18691 3.93062 1.15495C3.94404 1.123 3.95101 1.08871 3.95114 1.05405V0.527522C3.95114 0.233461 4.1836 0.000993497 4.47767 0.000993497V0Z" fill="#BBC1DF"/>
</svg>
