<svg xmlns="http://www.w3.org/2000/svg" width="20" height="17" viewBox="0 0 20 17" fill="none">
  <path d="M19.2792 8.25723L19.2707 8.2656C19.5209 8.23738 19.7653 8.35295 19.8994 8.56284C20.0335 8.77273 20.0335 9.03975 19.8994 9.24964C19.7653 9.45953 19.5209 9.5751 19.2707 9.54688H18.2927V12.1011C18.288 14.4533 16.3527 16.359 13.964 16.3636H13.2496C12.888 16.3636 12.5948 16.0749 12.5948 15.7188C12.5948 15.3627 12.888 15.074 13.2496 15.074H13.964C14.7676 15.0807 15.5408 14.7716 16.1123 14.2151C16.6837 13.6587 17.0063 12.9008 17.0085 12.1094V9.54688H2.985V12.0592C2.98499 13.6978 4.33147 15.0275 5.99551 15.0321H6.73538C7.09703 15.0321 7.39021 15.3208 7.39021 15.6769C7.39021 16.0331 7.09703 16.3218 6.73538 16.3218H6.02102C3.63368 16.3171 1.70085 14.4101 1.70085 12.0592V9.54688H0.654829C0.293177 9.54688 0 9.25818 0 8.90205C0 8.54592 0.293177 8.25723 0.654829 8.25723H19.2792ZM11.6764 11.272L11.7652 11.2779C12.0848 11.3206 12.3312 11.5904 12.3312 11.9168C12.3312 12.273 12.038 12.5617 11.6764 12.5617H8.01952C7.65787 12.5617 7.3647 12.273 7.3647 11.9168C7.36935 11.5594 7.66498 11.272 8.02803 11.272H11.6764ZM13.964 7.41418e-05C15.1165 -0.00661467 16.224 0.439521 17.0413 1.23963C17.8587 2.03975 18.3182 3.12777 18.3182 4.26264V5.22569L18.3122 5.31319C18.2689 5.62793 17.9949 5.87052 17.6634 5.87052C17.3017 5.87052 17.0085 5.58182 17.0085 5.22569V4.26264C17.0086 3.4698 16.687 2.7098 16.1153 2.15154C15.5436 1.59329 14.7691 1.28303 13.964 1.28973H13.2582C12.8965 1.28973 12.6033 1.00103 12.6033 0.644902C12.6033 0.288774 12.8965 7.41418e-05 13.2582 7.41418e-05H13.964ZM6.71837 7.41418e-05C7.08002 7.41418e-05 7.3732 0.288774 7.3732 0.644902C7.3732 1.00103 7.08002 1.28973 6.71837 1.28973H6.00401C4.33666 1.28973 2.985 2.62075 2.985 4.26264V5.22569L2.97682 5.32671C2.95516 5.45948 2.89114 5.58304 2.7927 5.67872C2.66964 5.79832 2.50305 5.86439 2.33017 5.8622C1.98179 5.8488 1.70512 5.56899 1.70084 5.22569V4.26264C1.69614 1.91637 3.62137 0.00930685 6.00401 7.41418e-05H6.71837ZM8.02803 4.45525H11.6679C11.9985 4.49254 12.2482 4.76815 12.2482 5.09589C12.2482 5.42364 11.9985 5.69924 11.6679 5.73653H7.977C7.72685 5.75329 7.48894 5.62791 7.36433 5.41365C7.23972 5.19939 7.2503 4.93388 7.39156 4.72989C7.53282 4.52591 7.77997 4.41926 8.02803 4.45525Z" fill="#2E3790"/>
</svg>