<svg width="16" height="16" viewBox="0 0 16 16" fill="none" xmlns="http://www.w3.org/2000/svg">
<path d="M1.87503 6.48395C2.22023 6.48395 2.50006 6.20411 2.50006 5.85892C2.50006 5.51372 2.22023 5.23389 1.87503 5.23389C1.52984 5.23389 1.25 5.51372 1.25 5.85892C1.25 6.20411 1.52984 6.48395 1.87503 6.48395Z" fill="black"/>
<path d="M1.87503 15.5157C2.22023 15.5157 2.50006 15.2359 2.50006 14.8907C2.50006 14.5455 2.22023 14.2656 1.87503 14.2656C1.52984 14.2656 1.25 14.5455 1.25 14.8907C1.25 15.2359 1.52984 15.5157 1.87503 15.5157Z" fill="black"/>
<path d="M1.87503 10.9844C2.22023 10.9844 2.50006 10.7046 2.50006 10.3594C2.50006 10.0142 2.22023 9.73438 1.87503 9.73438C1.52984 9.73438 1.25 10.0142 1.25 10.3594C1.25 10.7046 1.52984 10.9844 1.87503 10.9844Z" fill="black"/>
<path d="M1.87503 8.73444C2.22023 8.73444 2.50006 8.4546 2.50006 8.10941C2.50006 7.76421 2.22023 7.48438 1.87503 7.48438C1.52984 7.48438 1.25 7.76421 1.25 8.10941C1.25 8.4546 1.52984 8.73444 1.87503 8.73444Z" fill="black"/>
<path d="M1.87503 13.2657C2.22023 13.2657 2.50006 12.9859 2.50006 12.6407C2.50006 12.2955 2.22023 12.0156 1.87503 12.0156C1.52984 12.0156 1.25 12.2955 1.25 12.6407C1.25 12.9859 1.52984 13.2657 1.87503 13.2657Z" fill="black"/>
<path d="M4.18753 15.5157C4.53273 15.5157 4.81256 15.2359 4.81256 14.8907C4.81256 14.5455 4.53273 14.2656 4.18753 14.2656C3.84234 14.2656 3.5625 14.5455 3.5625 14.8907C3.5625 15.2359 3.84234 15.5157 4.18753 15.5157Z" fill="black"/>
<path d="M10.9063 3.3877C9.70009 3.3877 8.71875 4.36904 8.71875 5.57529C8.71875 6.78154 9.70009 7.76288 10.9063 7.76288C12.1126 7.76288 13.0939 6.78154 13.0939 5.57529C13.0939 4.36904 12.1126 3.3877 10.9063 3.3877ZM10.9063 6.51282C10.3894 6.51282 9.96881 6.09223 9.96881 5.57529C9.96881 5.05832 10.3894 4.63776 10.9063 4.63776C11.4233 4.63776 11.8439 5.05835 11.8439 5.57529C11.8439 6.09223 11.4233 6.51282 10.9063 6.51282Z" fill="black"/>
<path d="M10.9375 15.5157C11.2827 15.5157 11.5626 15.2359 11.5626 14.8907C11.5626 14.5455 11.2827 14.2656 10.9375 14.2656C10.5923 14.2656 10.3125 14.5455 10.3125 14.8907C10.3125 15.2359 10.5923 15.5157 10.9375 15.5157Z" fill="black"/>
<path d="M10.906 0.483918C8.09719 0.483918 5.81206 2.76792 5.81206 5.57532V5.7121C5.81206 7.1277 6.61559 8.76748 8.20034 10.5859C9.34047 11.8941 10.466 12.8074 10.5134 12.8457L10.906 13.1627L11.2987 12.8457C11.346 12.8074 12.4716 11.8941 13.6117 10.5859C15.1965 8.76748 16 7.1277 16 5.7121V5.57532C16 2.76789 13.7149 0.483918 10.906 0.483918ZM14.7499 5.57532V5.7121C14.7499 6.79792 14.0347 8.19442 12.6814 9.75064C12.0046 10.5291 11.3198 11.1693 10.9059 11.5364C10.4951 11.1723 9.8175 10.5388 9.14278 9.7646C7.78159 8.20276 7.06213 6.80139 7.06213 5.7121V5.57532C7.06213 3.4572 8.7865 1.73398 10.906 1.73398C13.0256 1.73398 14.7499 3.4572 14.7499 5.57532ZM1.87506 0.483887C0.841156 0.483887 0 1.32504 0 2.35898C0 3.39289 0.841156 4.23404 1.87506 4.23404C2.90897 4.23404 3.75016 3.39289 3.75016 2.35898C3.75016 1.32504 2.909 0.483887 1.87506 0.483887ZM1.87506 2.98398C1.53044 2.98398 1.25003 2.70361 1.25003 2.35895C1.25003 2.01432 1.53041 1.73392 1.87506 1.73392C2.21972 1.73392 2.50009 2.01429 2.50009 2.35895C2.50009 2.70361 2.21972 2.98398 1.87506 2.98398Z" fill="black"/>
<path d="M6.43753 15.5157C6.78273 15.5157 7.06256 15.2359 7.06256 14.8907C7.06256 14.5455 6.78273 14.2656 6.43753 14.2656C6.09234 14.2656 5.8125 14.5455 5.8125 14.8907C5.8125 15.2359 6.09234 15.5157 6.43753 15.5157Z" fill="black"/>
<path d="M8.68753 15.5157C9.03273 15.5157 9.31256 15.2359 9.31256 14.8907C9.31256 14.5455 9.03273 14.2656 8.68753 14.2656C8.34234 14.2656 8.0625 14.5455 8.0625 14.8907C8.0625 15.2359 8.34234 15.5157 8.68753 15.5157Z" fill="black"/>
</svg>
