<svg width="14" height="18" viewBox="0 0 14 18" fill="none" xmlns="http://www.w3.org/2000/svg">
<path d="M10.4002 13.1809C9.75761 13.1809 9.23554 13.7029 9.23554 14.3857C9.23554 15.0684 9.75761 15.5904 10.4002 15.5904H13.6531V13.1809H10.4002ZM10.4403 14.7873C10.2395 14.7873 10.0387 14.6266 10.0387 14.3857C10.0387 14.1447 10.1994 13.9841 10.4403 13.9841C10.6411 13.9841 10.8419 14.1447 10.8419 14.3857C10.8018 14.5865 10.6411 14.7873 10.4403 14.7873ZM9.83793 3.50241L7.46852 2.69922C7.14724 3.18113 6.58501 3.46225 6.02277 3.42209L4.61719 7.55853H9.67729L10.5206 4.98831C10.0789 4.62688 9.79777 4.06464 9.83793 3.50241ZM8.91426 4.86784C8.79378 5.26943 8.31187 5.51039 7.91027 5.38991C7.50868 5.26943 7.22756 4.78752 7.3882 4.38592C7.54884 3.98433 7.99059 3.74337 8.39219 3.86385C8.79378 3.98433 9.03474 4.46624 8.91426 4.86784Z" fill="#BBC1DF"/>
<path d="M5.70175 0.450208L12.569 2.7393C12.6895 2.77946 12.7698 2.85978 12.81 2.9401C12.8502 3.02042 12.8502 3.1409 12.8502 3.26138L11.4044 7.59861H10.5611L11.4446 4.94808C11.4847 4.8276 11.4847 4.74728 11.4044 4.6268C11.3642 4.54649 11.2839 4.46617 11.1634 4.42601C10.7619 4.30553 10.5209 3.82361 10.6414 3.42202C10.7217 3.22122 10.6012 2.98026 10.4004 2.89994L7.34829 1.89595C7.22781 1.85579 7.14749 1.85579 7.02701 1.93611C6.94669 1.97627 6.86637 2.05659 6.82621 2.17707C6.70574 2.57867 6.22382 2.81962 5.82222 2.69914C5.62143 2.61883 5.38047 2.7393 5.30015 2.9401L3.73393 7.63877H2.89058L5.17967 0.771485C5.25999 0.490368 5.50095 0.369889 5.70175 0.450208ZM1.60547 7.55845V3.90393C2.1677 3.74329 2.60946 3.30154 2.7701 2.7393H3.69377L2.08738 7.55845H1.60547Z" fill="#BBC1DF"/>
<path d="M0.120479 1.25329C0.200798 1.17297 0.281117 1.13281 0.401596 1.13281H4.21676L3.93564 1.936H2.40957C2.2891 1.936 2.20878 1.97616 2.12846 2.05648C2.04814 2.1368 2.00798 2.21712 2.00798 2.3376C2.00798 2.77936 1.64654 3.14079 1.20479 3.14079C0.96383 3.14079 0.803192 3.30143 0.803192 3.54239V7.59851C0.522075 7.63866 0.240957 7.7993 0 7.95994V1.53441C0 1.41393 0.0401597 1.33361 0.120479 1.25329ZM13.6543 16.795C13.6543 17.4778 13.1322 17.9998 12.4495 17.9998H1.20479C0.522075 17.9998 0 17.4778 0 16.795V9.56632C0 8.88361 0.522075 8.36154 1.20479 8.36154H12.4093C13.092 8.36154 13.6141 8.88361 13.6141 9.56632V12.3775H10.3612C9.27686 12.3775 8.39335 13.261 8.39335 14.3855C8.39335 15.5099 9.27686 16.3935 10.3612 16.3935H13.6141V16.795H13.6543Z" fill="#BBC1DF"/>
</svg>
