<svg width="15" height="15" viewBox="0 0 15 15" fill="none" xmlns="http://www.w3.org/2000/svg">
<path d="M10.9487 7.08399C11.4192 7.46266 11.9532 7.65346 12.4494 7.65346C12.9021 7.65346 13.3236 7.49454 13.6378 7.17444L14.5354 6.25853C15.2613 5.51881 15.1221 4.21763 14.2194 3.297L13.6715 2.7378C13.0211 2.0742 12.1038 1.78898 11.3801 2.01713C10.6092 1.31948 8.95504 0 7.46824 0C6.84896 0 6.30041 0.225975 5.88183 0.652576C5.62436 0.915526 5.59548 1.326 5.81373 1.62233L6.14111 2.06693C6.81836 2.98673 7.55426 3.86033 8.34041 4.68473L4.50378 8.59914C4.31216 8.49631 4.09541 8.43601 3.86261 8.43601C3.38725 8.43601 2.89465 8.65944 2.51268 9.04944L0.594476 11.0061C-0.100625 11.7151 -0.19985 12.7255 0.36925 13.3067L0.917801 13.8662C1.1602 14.1138 1.4968 14.25 1.86483 14.25C2.34018 14.25 2.83203 14.0263 3.21393 13.6366L5.13251 11.6799C5.72516 11.0747 5.88011 10.2531 5.56128 9.66369L9.41006 5.73691C9.90739 6.20341 10.4169 6.65671 10.9487 7.08399ZM10.7268 3.46583C10.8678 3.60901 11.0604 3.68993 11.2614 3.68993C11.4629 3.68993 11.6566 3.60901 11.7976 3.46508C11.8639 3.39586 12.2561 3.43613 12.6003 3.78773L13.1482 4.34693C13.5093 4.71533 13.5452 5.12588 13.4643 5.20861L12.5667 6.12451C12.5121 6.18091 12.2144 6.17648 11.8884 5.91503C10.2863 4.62706 8.84336 3.14573 7.59536 1.5066C8.56429 1.60215 10.0112 2.73818 10.7268 3.46583ZM4.06136 10.6297L2.14315 12.5864C2.0512 12.6801 1.9663 12.7223 1.9135 12.7394L1.50408 12.322C1.51908 12.2615 1.5649 12.159 1.66518 12.0565L3.58338 10.0998C3.67533 10.0061 3.76023 9.96391 3.81266 9.94674L4.22208 10.3642C4.20746 10.4246 4.16171 10.5271 4.06136 10.6297Z" fill="#BBC1DF"/>
</svg>
