<svg xmlns="http://www.w3.org/2000/svg" width="14" height="14" viewBox="0 0 14 14" fill="none">
  <g clip-path="url(#clip0_1053_29471)">
    <path d="M11.0837 4.66667V4.123C11.0829 3.33917 10.7712 2.58766 10.2169 2.03341C9.66266 1.47916 8.91116 1.16744 8.12733 1.16667H7.58366V0H6.41699V1.16667H5.87333C5.17176 1.16742 4.49333 1.41764 3.95929 1.8726C3.42525 2.32757 3.07041 2.95763 2.95821 3.65016C2.846 4.3427 2.98373 5.05256 3.34679 5.65288C3.70984 6.2532 4.27456 6.70485 4.93999 6.92708L6.41699 7.42V11.6667H5.87333C5.39882 11.6662 4.94388 11.4775 4.60835 11.142C4.27282 10.8064 4.08412 10.3515 4.08366 9.877V9.33333H2.91699V9.877C2.91776 10.6608 3.22948 11.4123 3.78373 11.9666C4.33799 12.5208 5.08949 12.8326 5.87333 12.8333H6.41699V14H7.58366V12.8333H8.12733C8.82889 12.8326 9.50732 12.5824 10.0414 12.1274C10.5754 11.6724 10.9302 11.0424 11.0424 10.3498C11.1547 9.6573 11.0169 8.94744 10.6539 8.34712C10.2908 7.7468 9.72609 7.29515 9.06066 7.07292L7.58366 6.58V2.33333H8.12733C8.60183 2.3338 9.05677 2.5225 9.3923 2.85803C9.72783 3.19355 9.91653 3.64849 9.91699 4.123V4.66667H11.0837ZM8.69199 8.17892C9.09523 8.31312 9.43754 8.58645 9.65768 8.94998C9.87782 9.3135 9.9614 9.7435 9.89348 10.163C9.82556 10.5825 9.61057 10.9642 9.28697 11.2397C8.96338 11.5152 8.55231 11.6665 8.12733 11.6667H7.58366V7.80908L8.69199 8.17892ZM6.41699 6.19092L5.30866 5.82108C4.90542 5.68687 4.56311 5.41355 4.34297 5.05002C4.12284 4.6865 4.03925 4.2565 4.10717 3.83698C4.17509 3.41746 4.39008 3.0358 4.71368 2.7603C5.03727 2.4848 5.44834 2.33345 5.87333 2.33333H6.41699V6.19092Z" fill="#C1C1C1"/>
  </g>
  <defs>
    <clipPath id="clip0_1053_29471">
      <rect width="14" height="14" fill="white"/>
    </clipPath>
  </defs>
</svg>