<svg xmlns="http://www.w3.org/2000/svg" width="14" height="14" viewBox="0 0 14 14" fill="none">
  <g clip-path="url(#clip0_1053_29506)">
    <path d="M11.0833 1.16667H10.5V0.583333C10.5 0.428624 10.4385 0.280251 10.3291 0.170854C10.2197 0.0614582 10.0714 0 9.91667 0C9.76196 0 9.61358 0.0614582 9.50419 0.170854C9.39479 0.280251 9.33333 0.428624 9.33333 0.583333V1.16667H4.66667V0.583333C4.66667 0.428624 4.60521 0.280251 4.49581 0.170854C4.38642 0.0614582 4.23804 0 4.08333 0C3.92862 0 3.78025 0.0614582 3.67085 0.170854C3.56146 0.280251 3.5 0.428624 3.5 0.583333V1.16667H2.91667C1.30842 1.16667 0 2.47508 0 4.08333V11.0833C0 12.6916 1.30842 14 2.91667 14H11.0833C12.6916 14 14 12.6916 14 11.0833V4.08333C14 2.47508 12.6916 1.16667 11.0833 1.16667ZM2.91667 2.33333H11.0833C12.0482 2.33333 12.8333 3.1185 12.8333 4.08333V4.66667H1.16667V4.08333C1.16667 3.1185 1.95183 2.33333 2.91667 2.33333ZM11.0833 12.8333H2.91667C1.95183 12.8333 1.16667 12.0482 1.16667 11.0833V5.83333H12.8333V11.0833C12.8333 12.0482 12.0482 12.8333 11.0833 12.8333ZM11.0833 8.16667C11.0833 8.32138 11.0219 8.46975 10.9125 8.57915C10.8031 8.68854 10.6547 8.75 10.5 8.75H3.5C3.34529 8.75 3.19692 8.68854 3.08752 8.57915C2.97812 8.46975 2.91667 8.32138 2.91667 8.16667C2.91667 8.01196 2.97812 7.86358 3.08752 7.75419C3.19692 7.64479 3.34529 7.58333 3.5 7.58333H10.5C10.6547 7.58333 10.8031 7.64479 10.9125 7.75419C11.0219 7.86358 11.0833 8.01196 11.0833 8.16667ZM7 10.5C7 10.6547 6.93854 10.8031 6.82915 10.9125C6.71975 11.0219 6.57138 11.0833 6.41667 11.0833H3.5C3.34529 11.0833 3.19692 11.0219 3.08752 10.9125C2.97812 10.8031 2.91667 10.6547 2.91667 10.5C2.91667 10.3453 2.97812 10.1969 3.08752 10.0875C3.19692 9.97812 3.34529 9.91667 3.5 9.91667H6.41667C6.57138 9.91667 6.71975 9.97812 6.82915 10.0875C6.93854 10.1969 7 10.3453 7 10.5Z" fill="#C1C1C1"/>
  </g>
  <defs>
    <clipPath id="clip0_1053_29506">
      <rect width="14" height="14" fill="white"/>
    </clipPath>
  </defs>
</svg>