<svg xmlns="http://www.w3.org/2000/svg" width="14" height="14" viewBox="0 0 14 14" fill="none">
  <g clip-path="url(#clip0_1053_29480)">
    <path d="M10.7917 2.91667H9.04167C8.65504 2.91713 8.28437 3.07092 8.01098 3.34431C7.73759 3.6177 7.5838 3.98837 7.58334 4.375V6.41667H6.77717L5.97859 4.81892C5.7816 4.42159 5.47721 4.08742 5.09995 3.8543C4.72268 3.62117 4.28764 3.49844 3.84417 3.5C3.28773 3.50124 2.75455 3.72339 2.36185 4.11762C1.96915 4.51185 1.74907 5.04589 1.75 5.60233L1.7815 7.80733C1.78564 8.2045 1.89178 8.59395 2.08975 8.93829C2.28771 9.28264 2.57086 9.57032 2.912 9.77375L4.38434 10.6593C4.55875 10.7642 4.66667 10.9562 4.66667 11.1592V13.4161C4.66667 13.5708 4.72813 13.7192 4.83752 13.8286C4.94692 13.938 5.09529 13.9994 5.25 13.9994C5.40471 13.9994 5.55309 13.938 5.66248 13.8286C5.77188 13.7192 5.83334 13.5708 5.83334 13.4161V11.1592C5.83238 10.8575 5.75393 10.5612 5.60552 10.2985C5.4571 10.0359 5.24369 9.81584 4.98575 9.65942L3.51284 8.77333C3.34246 8.67138 3.20109 8.52742 3.10223 8.35523C3.00337 8.18304 2.95032 7.98837 2.94817 7.78983L2.91667 5.593C2.91667 5.08142 3.33259 4.6655 3.84417 4.6655C3.92584 4.6655 4.00575 4.67367 4.08334 4.68883V7.58217C4.08334 7.73688 4.14479 7.88525 4.25419 7.99465C4.36359 8.10404 4.51196 8.1655 4.66667 8.1655C4.82138 8.1655 4.96975 8.10404 5.07915 7.99465C5.18854 7.88525 5.25 7.73688 5.25 7.58217V5.96925L5.73359 6.93642C5.82964 7.13091 5.9784 7.29451 6.16291 7.40858C6.34741 7.52265 6.56025 7.58259 6.77717 7.58158H10.7917C11.5961 7.58158 12.25 6.92708 12.25 6.12325V4.37325C12.25 3.56942 11.5961 2.91492 10.7917 2.91492V2.91667ZM11.0833 6.125C11.0833 6.20235 11.0526 6.27654 10.9979 6.33124C10.9432 6.38594 10.869 6.41667 10.7917 6.41667H8.75V4.375C8.75 4.29765 8.78073 4.22346 8.83543 4.16876C8.89013 4.11406 8.96431 4.08333 9.04167 4.08333H10.7917C10.869 4.08333 10.9432 4.11406 10.9979 4.16876C11.0526 4.22346 11.0833 4.29765 11.0833 4.375V6.125ZM2.33334 1.45833C2.33334 1.07156 2.48698 0.700626 2.76047 0.427136C3.03396 0.153645 3.4049 0 3.79167 0C4.17844 0 4.54938 0.153645 4.82287 0.427136C5.09636 0.700626 5.25 1.07156 5.25 1.45833C5.25 1.84511 5.09636 2.21604 4.82287 2.48953C4.54938 2.76302 4.17844 2.91667 3.79167 2.91667C3.4049 2.91667 3.03396 2.76302 2.76047 2.48953C2.48698 2.21604 2.33334 1.84511 2.33334 1.45833ZM3.5 11.6667V13.4167C3.5 13.5714 3.43854 13.7197 3.32915 13.8291C3.21975 13.9385 3.07138 14 2.91667 14C2.76196 14 2.61359 13.9385 2.50419 13.8291C2.39479 13.7197 2.33334 13.5714 2.33334 13.4167V11.6667C2.33334 11.512 2.39479 11.3636 2.50419 11.2542C2.61359 11.1448 2.76196 11.0833 2.91667 11.0833C3.07138 11.0833 3.21975 11.1448 3.32915 11.2542C3.43854 11.3636 3.5 11.512 3.5 11.6667Z" fill="#C1C1C1"/>
  </g>
  <defs>
    <clipPath id="clip0_1053_29480">
      <rect width="14" height="14" fill="white"/>
    </clipPath>
  </defs>
</svg>