<svg xmlns="http://www.w3.org/2000/svg" width="14" height="14" viewBox="0 0 14 14" fill="none">
  <g clip-path="url(#clip0_1053_29486)">
    <path d="M13.4167 10.5H12.5417C12.4643 10.5 12.3901 10.4693 12.3354 10.4146C12.2807 10.3599 12.25 10.2857 12.25 10.2083V2.625C12.25 2.47029 12.1885 2.32192 12.0791 2.21252C11.9698 2.10312 11.8214 2.04167 11.6667 2.04167C11.512 2.04167 11.3636 2.10312 11.2542 2.21252C11.1448 2.32192 11.0833 2.47029 11.0833 2.625V7.58333H9.28667L8.239 2.345C8.1054 1.68446 7.7478 1.09033 7.22667 0.663042C6.70553 0.235758 6.05283 0.00154397 5.37892 0L2.91667 0C1.30842 0 0 1.30842 0 2.91667V11.9583C0 13.0842 0.915833 14 2.04167 14C3.1675 14 4.08333 13.0842 4.08333 11.9583V11.6667H5.83333V11.9583C5.83333 13.0842 6.74917 14 7.875 14C9.00083 14 9.91667 13.0842 9.91667 11.9583V10.7917C9.91686 10.7532 9.91295 10.7149 9.905 10.6773L9.51942 8.75H11.0828V10.2083C11.0828 11.0127 11.7373 11.6667 12.5411 11.6667H13.4161C13.5708 11.6667 13.7192 11.6052 13.8286 11.4958C13.938 11.3864 13.9994 11.238 13.9994 11.0833C13.9994 10.9286 13.938 10.7802 13.8286 10.6709C13.7192 10.5615 13.5714 10.5 13.4167 10.5ZM2.91667 1.16667H5.37892C5.78324 1.16774 6.1748 1.30832 6.48747 1.56466C6.80014 1.82101 7.01476 2.17741 7.09508 2.57367L8.09725 7.58333H6.18392C5.89458 7.58333 5.63733 7.3885 5.55975 7.10967C5.45551 6.7428 5.23468 6.41983 4.93065 6.18957C4.62661 5.95931 4.25589 5.83426 3.8745 5.83333H1.16667V2.91667C1.16667 1.95183 1.95183 1.16667 2.91667 1.16667ZM2.91667 11.9583C2.91667 12.4407 2.52408 12.8333 2.04167 12.8333C1.55925 12.8333 1.16667 12.4407 1.16667 11.9583V11.6667H2.91667V11.9583ZM7.875 12.8333C7.39258 12.8333 7 12.4407 7 11.9583V11.6667H8.75V11.9583C8.75 12.4407 8.35742 12.8333 7.875 12.8333ZM8.68 10.5H1.16667V7H3.8745C4.13467 7 4.36567 7.175 4.43625 7.42525C4.5441 7.80594 4.77301 8.14115 5.08833 8.38017C5.40365 8.61919 5.78824 8.74901 6.18392 8.75H8.33058L8.68 10.5Z" fill="#C1C1C1"/>
  </g>
  <defs>
    <clipPath id="clip0_1053_29486">
      <rect width="14" height="14" fill="white"/>
    </clipPath>
  </defs>
</svg>