<svg xmlns="http://www.w3.org/2000/svg" width="14" height="14" viewBox="0 0 14 14" fill="none">
  <g clip-path="url(#clip0_1053_29518)">
    <path d="M11.0833 12.8327H2.91667C1.30842 12.8327 0 11.5243 0 9.91602V4.08268C0 2.47443 1.30842 1.16602 2.91667 1.16602H11.0833C12.6916 1.16602 14 2.47443 14 4.08268V9.91602C14 11.5243 12.6916 12.8327 11.0833 12.8327ZM2.91667 2.33268C1.95183 2.33268 1.16667 3.11785 1.16667 4.08268V9.91602C1.16667 10.8808 1.95183 11.666 2.91667 11.666H11.0833C12.0482 11.666 12.8333 10.8808 12.8333 9.91602V4.08268C12.8333 3.11785 12.0482 2.33268 11.0833 2.33268H2.91667ZM10.5 7.58268H8.16667C7.52325 7.58268 7 7.05943 7 6.41602V5.24935C7 4.60593 7.52325 4.08268 8.16667 4.08268H10.5C11.1434 4.08268 11.6667 4.60593 11.6667 5.24935V6.41602C11.6667 7.05943 11.1434 7.58268 10.5 7.58268ZM8.16667 5.24935V6.41602H10.5006V5.24935H8.16667ZM5.83333 6.99935C5.83333 6.84464 5.77187 6.69627 5.66248 6.58687C5.55308 6.47747 5.40471 6.41602 5.25 6.41602H2.91667C2.76196 6.41602 2.61358 6.47747 2.50419 6.58687C2.39479 6.69627 2.33333 6.84464 2.33333 6.99935C2.33333 7.15406 2.39479 7.30243 2.50419 7.41183C2.61358 7.52122 2.76196 7.58268 2.91667 7.58268H5.25C5.40471 7.58268 5.55308 7.52122 5.66248 7.41183C5.77187 7.30243 5.83333 7.15406 5.83333 6.99935ZM11.6667 9.33268C11.6667 9.17797 11.6052 9.0296 11.4958 8.9202C11.3864 8.81081 11.238 8.74935 11.0833 8.74935H2.91667C2.76196 8.74935 2.61358 8.81081 2.50419 8.9202C2.39479 9.0296 2.33333 9.17797 2.33333 9.33268C2.33333 9.48739 2.39479 9.63577 2.50419 9.74516C2.61358 9.85456 2.76196 9.91602 2.91667 9.91602H11.0833C11.238 9.91602 11.3864 9.85456 11.4958 9.74516C11.6052 9.63577 11.6667 9.48739 11.6667 9.33268Z" fill="#C1C1C1"/>
  </g>
  <defs>
    <clipPath id="clip0_1053_29518">
      <rect width="14" height="14" fill="white"/>
    </clipPath>
  </defs>
</svg>