<svg xmlns="http://www.w3.org/2000/svg" width="14" height="14" viewBox="0 0 14 14" fill="none">
  <g clip-path="url(#clip0_1053_29496)">
    <mask id="mask0_1053_29496" style="mask-type:luminance" maskUnits="userSpaceOnUse" x="0" y="0" width="14" height="14">
      <path d="M13.9874 0.0136719H0.0146484V13.9864H13.9874V0.0136719Z" fill="white"/>
    </mask>
    <g mask="url(#mask0_1053_29496)">
      <path fill-rule="evenodd" clip-rule="evenodd" d="M9.24477 3.4273L10.7178 0.689902C11.0541 0.0650595 11.8332 -0.168929 12.4581 0.167344C12.4653 0.171219 12.4725 0.175095 12.4797 0.17897C13.1046 0.515215 13.3385 1.29436 13.0023 1.91923L12.0497 3.68937C12.2253 3.78559 12.3879 3.9069 12.532 4.05102C12.9314 4.45039 13.1558 4.99205 13.1558 5.55683C13.1558 6.59798 13.1558 8.07014 13.1558 9.1081C13.1558 9.66985 12.9326 10.2086 12.5354 10.6058C12.1382 11.003 11.5994 11.2262 11.0377 11.2262H10.3443L7.82772 13.732C7.55181 14.0068 7.12731 14.0656 6.78702 13.8763C6.44674 13.6871 6.27287 13.2953 6.3608 12.916L6.75242 11.2262H2.96377C2.40202 11.2262 1.86328 11.003 1.46607 10.6058C1.06886 10.2086 0.845703 9.66985 0.845703 9.1081V5.54539C0.845703 4.98364 1.06886 4.4449 1.46607 4.04766C1.86328 3.65045 2.40202 3.4273 2.96377 3.4273H9.24477ZM8.77486 4.30059H2.96377C2.63364 4.30059 2.31704 4.43175 2.0836 4.66519C1.85016 4.89863 1.719 5.21526 1.719 5.54539V9.1081C1.719 9.43824 1.85016 9.75486 2.0836 9.9883C2.31704 10.2217 2.63364 10.3529 2.96377 10.3529H7.85127L7.21156 13.1132L9.98369 10.3529H11.0377C11.3678 10.3529 11.6845 10.2217 11.9179 9.9883C12.1513 9.75486 12.2825 9.43824 12.2825 9.1081C12.2825 8.07014 12.2825 6.59798 12.2825 5.55683C12.2825 5.22366 12.1501 4.90412 11.9145 4.66855C11.8311 4.58515 11.7372 4.51469 11.6359 4.45844L10.7569 6.09175C10.6772 6.23999 10.5563 6.362 10.4088 6.44311L9.7252 6.81906C9.46564 6.96182 9.15139 6.96324 8.89054 6.82286C8.62968 6.6825 8.45777 6.41945 8.43389 6.12419L8.37107 5.34661C8.35751 5.1788 8.39274 5.01066 8.47251 4.86245L8.77486 4.30059ZM3.2742 8.04143H7.99545C8.23645 8.04143 8.43209 7.84578 8.43209 7.60478C8.43209 7.36381 8.23645 7.16814 7.99545 7.16814H3.2742C3.0332 7.16814 2.83755 7.36381 2.83755 7.60478C2.83755 7.84578 3.0332 8.04143 3.2742 8.04143ZM3.2742 6.404H6.90383C7.14483 6.404 7.34048 6.20836 7.34048 5.96736C7.34048 5.72638 7.14483 5.53071 6.90383 5.53071H3.2742C3.0332 5.53071 2.83755 5.72638 2.83755 5.96736C2.83755 6.20836 3.0332 6.404 3.2742 6.404ZM9.98792 5.67791L12.2333 1.50539C12.341 1.30525 12.266 1.05568 12.0659 0.947987C12.0587 0.944112 12.0515 0.940237 12.0443 0.936362C11.8441 0.828646 11.5946 0.903586 11.4869 1.10373L9.24153 5.27625L9.30435 6.05384L9.98792 5.67791Z" fill="#C1C1C1"/>
    </g>
  </g>
  <defs>
    <clipPath id="clip0_1053_29496">
      <rect width="14" height="14" fill="white"/>
    </clipPath>
  </defs>
</svg>