<svg xmlns="http://www.w3.org/2000/svg" width="14" height="14" viewBox="0 0 14 14" fill="none">
  <g clip-path="url(#clip0_1053_29521)">
    <path d="M11.0833 2.33333H8.75V1.75C8.75 0.785167 7.96483 0 7 0C6.03517 0 5.25 0.785167 5.25 1.75V2.33333H2.91667C1.30842 2.33333 0 3.64175 0 5.25V11.0833C0 12.6916 1.30842 14 2.91667 14H11.0833C12.6916 14 14 12.6916 14 11.0833V5.25C14 3.64175 12.6916 2.33333 11.0833 2.33333ZM6.41667 1.75C6.42339 1.5998 6.48778 1.45799 6.59644 1.35408C6.7051 1.25017 6.84965 1.19218 7 1.19218C7.15035 1.19218 7.2949 1.25017 7.40356 1.35408C7.51222 1.45799 7.57661 1.5998 7.58333 1.75V3.5H6.41608L6.41667 1.75ZM12.8333 11.0833C12.8333 12.0482 12.0482 12.8333 11.0833 12.8333H2.91667C1.95183 12.8333 1.16667 12.0482 1.16667 11.0833V5.25C1.16667 4.28517 1.95183 3.5 2.91667 3.5H5.25C5.25 4.14342 5.77325 4.66667 6.41667 4.66667H7.58333C8.22675 4.66667 8.75 4.14342 8.75 3.5H11.0833C12.0482 3.5 12.8333 4.28517 12.8333 5.25V11.0833ZM5.54167 7.29167C5.54167 6.90489 5.69531 6.53396 5.9688 6.26047C6.24229 5.98698 6.61323 5.83333 7 5.83333C7.38677 5.83333 7.75771 5.98698 8.0312 6.26047C8.30469 6.53396 8.45833 6.90489 8.45833 7.29167C8.45833 7.67844 8.30469 8.04937 8.0312 8.32286C7.75771 8.59635 7.38677 8.75 7 8.75C6.61323 8.75 6.24229 8.59635 5.9688 8.32286C5.69531 8.04937 5.54167 7.67844 5.54167 7.29167ZM9.898 11.5214C9.9173 11.5957 9.92176 11.673 9.91112 11.749C9.90048 11.825 9.87495 11.8982 9.836 11.9643C9.79705 12.0304 9.74543 12.0881 9.68412 12.1343C9.6228 12.1804 9.55299 12.214 9.47867 12.2331C9.40436 12.2522 9.327 12.2565 9.25104 12.2456C9.17507 12.2348 9.102 12.2091 9.03599 12.1699C8.96998 12.1308 8.91234 12.0791 8.86637 12.0176C8.8204 11.9562 8.787 11.8863 8.76808 11.8119C8.575 11.0641 7.81492 10.5 6.99942 10.5C6.18392 10.5 5.42325 11.0641 5.23075 11.8119C5.1919 11.9614 5.09536 12.0894 4.9623 12.1678C4.82923 12.2462 4.6705 12.2686 4.52092 12.2302C4.37134 12.1917 4.24311 12.0955 4.16436 11.9626C4.08561 11.8298 4.06276 11.6711 4.10083 11.5214C4.42692 10.2533 5.6455 9.33333 6.99883 9.33333C8.35217 9.33333 9.57075 10.2533 9.89683 11.5214H9.898Z" fill="#C1C1C1"/>
  </g>
  <defs>
    <clipPath id="clip0_1053_29521">
      <rect width="14" height="14" fill="white"/>
    </clipPath>
  </defs>
</svg>